<svg xmlns="http://www.w3.org/2000/svg" width="560" height="136" viewBox="0 0 560 136">
  <defs>
    <style>
      .cls-1 {
        fill: #d0cabc;
        fill-rule: evenodd;
      }
    </style>
  </defs>
  <path id="footer_bg_fude.svg" class="cls-1" d="M1364.5,15235.6c2.16-.5,4.36-0.8,6.55-1.1,2.3-1.2,4.61-2.4,7.18-3.7,1.17,0.1,2.79,1.6,4.13-.6a2.9,2.9,0,0,1,2.57-.8c3.89,1,7.24-.3,10.65-2,1.65-.7,3.51-1.1,5.4-1.7-0.18-1-.32-1.9-0.47-2.8h-0.01c-2.13.8-4.22,1.6-6.39,2.2a17.5,17.5,0,0,1-5.5.9,10.818,10.818,0,0,0-4.38.5,39.006,39.006,0,0,1-9.67,2.3c-2.67.2-5.23,1.7-7.84,2.7-1.07.4-2.12,0.8-3.1,1.2-1.36-.5-1.74-2.8-4.07-1.5-0.24,1.2-.51,2.8-0.84,4.7A15.733,15.733,0,0,0,1364.5,15235.6Zm161.06-2.6c-1.66.7-3.48,1.6-5.29,2.4a2.9,2.9,0,0,0,2.81.7,27.715,27.715,0,0,0,2.75-.7c1.03-.3,2.43-0.4,2.96-1.2,0.52-.7.13-2.1,0.23-3.2a2.617,2.617,0,0,1,.52-0.9c2.6,0.2.78,3,2.6,4.1a6.374,6.374,0,0,1,1.75-.7,26.67,26.67,0,0,0,2.76-.5,12.631,12.631,0,0,0,2.55-1.4c-2.25-.8-3.85-1.4-6.39-2.4,1.78-.6,2.68-1.3,3.36-1.1,2.09,0.6,3.68-.6,5.42-1.2,1.26-.4,1.49-1.6,1.73-2.7-2.03.4-4.38-.6-6.07,1.5a2.94,2.94,0,0,1-2.14.3c-1.81-.5-3.04.2-4.6,1.1-1.82,1.1-4.18,1.2-6.27,1.8-1.96.6-4.3,0.2-5.82,2,1.94,0,3.87-.1,5.8,0C1525.27,15230.9,1526,15231.4,1525.56,15233Zm-172.45,10.5c-0.13,1.9,1.32,2.5,2.39,2,4.61-2.2,9.65-2.7,14.43-4.2,1.76-.6,3.55-1,5.75-1.7,0.26-1.5.54-3.2,0.83-5a2.013,2.013,0,0,1-2.63,1.1c-0.98-.3-1.9-0.8-2.84-1.1-0.58.6-1.11,1.6-1.75,1.6-4.52.6-8.22,3-12.08,5.1C1356.17,15243.7,1355.84,15243.9,1353.11,15243.5Zm55.02-21.5c-2.7-.9-5.05.7-7.59,0.9,1.29,2.1,3.81,1.1,5.36,2.5,2.43-1.2,4.61-2.3,6.83-3.5a18.648,18.648,0,0,0,2.1,1.2,1.456,1.456,0,0,0,2.17-1,1.6,1.6,0,0,0-1.02-2.3,6.06,6.06,0,0,0-2.68,0,26.393,26.393,0,0,0-3.62,1.7C1409.17,15221.7,1408.53,15222.2,1408.13,15222Zm-153.79,44.7c-2.58-.4-4.92,1-7.2.1-0.26,1-.53,2-0.9,3.3,1.07,0.3,2.25.7,3.44,1.1-0.02.3-.05,0.6-0.07,0.9,0.24-.2.47-0.4,0.71-0.6,1.69,0.5,2.8-.7,4.22-1.1C1254.47,15269,1254.41,15267.9,1254.34,15266.7Zm93.99-30c1.1,0.6,2.21,1.2,3.56,2,1.32-.7,2.84-1.4,4.36-2.1l0.09,0.1a3.85,3.85,0,0,0,.77-1.4,2.213,2.213,0,0,0-.5-1.4C1353.66,15234.3,1350.39,15233.7,1348.33,15236.7Zm-114.75,38.7c-3.67-.1-6.97.9-9.5,4,2.59-.3,5.2-0.5,7.75-1C1233.06,15278.2,1234.43,15277.5,1233.58,15275.4Zm152.83-43.3a30.538,30.538,0,0,0-4.14,1.3c0.97,0.5,2.03,1.2,2.81,1,1.73-.5,3.16-1,4.65.5a2,2,0,0,0,1.6-.3,1.653,1.653,0,0,0,.8-1.3,1.737,1.737,0,0,0-.79-1.3A27.023,27.023,0,0,0,1386.41,15232.1Zm185.01-29.6a2.1,2.1,0,0,1,1.96.7c1.09,1.3,2.48.7,3.51,0.3,1.28-.5,1.75-1.8,1-3.5C1575.44,15200,1573.47,15201.4,1571.42,15202.5Zm-112.03,5.9a2.486,2.486,0,0,0-1.02-.3c-1.68,1.1-3.33,2.3-5.16,3.5C1456.03,15212.5,1456.67,15212.2,1459.39,15208.4Zm-224.56,65.4c2.84,0.5,2.84.5,7.91-2.3C1240.42,15270.3,1239.3,15270.6,1234.83,15273.8Zm308.5-49.6h-0.01c1.27,0.7,2.32,1.9,4.11,1.1,1.52-.6,3.22-0.8,5.4-1.4C1549.18,15221.7,1546.32,15224.7,1543.33,15224.2Zm-110.95-7.5c2.27,2,3.53-.6,6.34-0.6C1435.1,15214.1,1435.1,15214.1,1432.38,15216.7Zm-53.32,17.4a21.026,21.026,0,0,1-2.46.5c0.84,2,3.06,1.2,4.48,2.1a2.663,2.663,0,0,0,.96-3.2C1381.05,15233.7,1380.06,15233.9,1379.06,15234.1Zm-21.75-5.6c-2.24-1.2-3.53-.9-4.75.9C1354.41,15230.4,1355.53,15229.2,1357.31,15228.5Zm48.81,1.1c-0.27.7-.54,1.4-0.82,2.1,0.42,0.7.83,1.4,1.28,2.2a3.293,3.293,0,0,0,1.53-.7,8.235,8.235,0,0,0,.96-2.1C1408.01,15230.6,1407.06,15230.1,1406.12,15229.6Zm-206.85,55.7c2.36-.5,2.38-0.6,1.83-3.6A4.963,4.963,0,0,0,1199.27,15285.3Zm47.78-18.6a7.21,7.21,0,0,0,1.42-.7,0.916,0.916,0,0,0,.28-0.9,1.115,1.115,0,0,0-.85-0.6c-1.1,0-2.22.2-3.35,0.3a2.964,2.964,0,0,0-3.65-.5c-1.18.5-2.31,1.1-3.47,1.6,2.15,1.3,4.4,0,6.58.3C1244.86,15267.4,1245.98,15266.9,1247.05,15266.7Zm302.92-38.8a18.589,18.589,0,0,0,2.24,1.1,2.3,2.3,0,0,0,1.24-.8,0.975,0.975,0,0,0-.24-0.9,1.663,1.663,0,0,0-1.37-.1C1551.21,15227.5,1550.69,15228.1,1549.97,15227.9Zm-40.74,7,2.13-2.7a6.279,6.279,0,0,0-1.36-.1C1508.16,15232.4,1507.96,15233.2,1509.23,15234.9Zm-107.36-5.4h0c0.78,0.6,1.56,1.1,2.35,1.7,0.61-.6,1.23-1.1,1.85-1.7-0.74-1.4-1.71-1.6-2.97-.6a5.742,5.742,0,0,1-1.33.6h0.1Zm-164.54,37.6c0-.4.06-0.8,0.09-1.2a1.4,1.4,0,0,1-.83.6c-0.75.2-1.5,0.4-1.45,1.3a1.372,1.372,0,0,0,.8.6A1.2,1.2,0,0,0,1237.33,15267.1Zm-14.88,8.2c1.78-1.4,2.35-2.4,1.69-4.4C1223.6,15272.3,1223.18,15273.4,1222.45,15275.3Zm-24.99,11.4a6.958,6.958,0,0,0,1.56-1.3c-0.72-.3-1.45-0.6-2.16-0.9-0.27.6-.52,1.3-0.79,1.9A4.057,4.057,0,0,0,1197.46,15286.7Zm112.16-44.7c-0.12.8-.25,1.6-0.38,2.5,0.84-.6,1.68-1.1,2.62-1.8C1311.66,15241.7,1310.77,15241.8,1309.62,15242Zm255.24-38h-0.02c1.14-.5,2.62-0.6,2.86-2.3a12.563,12.563,0,0,0-1.92.3A1.3,1.3,0,0,0,1564.86,15204Zm-189.49,18.9a4.419,4.419,0,0,0-.35-1h0.04a2.569,2.569,0,0,0-1.01.3,1.105,1.105,0,0,0,.2,2.2C1375.19,15224.4,1375.43,15223.7,1375.37,15222.9Zm-43.24,13.2a7.219,7.219,0,0,0,1.44-.5,1.157,1.157,0,0,0-.11-0.7,6.367,6.367,0,0,0-1.38,0C1332.11,15235.4,1332.12,15235.8,1332.13,15236.1Zm221.47-30.2h0.08c0.12-.2.25-0.5,0.38-0.7C1553.9,15205.4,1553.75,15205.7,1553.6,15205.9Zm68.67,64.4c-0.64-.3-1.81.3-2.7,0.6-2.54.9-5.07,1.4-7.74,0.5-1.73-.6-3.27.1-4.75,0.9h0c0.89-2.7,2.2-4.6,5.68-3.8,1.15,0.3,2.56-.5,3.83-0.8a2.555,2.555,0,0,0,.52-0.7c-0.34-.8-1.88-0.9-0.93-2.4a49.407,49.407,0,0,1,7.57,1,3.766,3.766,0,0,0,3.55-.6c2.84-1.8,4.86-1.5,7.54.5a24.046,24.046,0,0,0,3.62,2.1c0.02-.4.04-0.8,0.05-1.1,1.04,0.6.97,0.2-.1-0.7,1.58-1.1,3.17-2.2,4.84-3.4,0.35,0.9.53,1.4,0.82,2.2a16.3,16.3,0,0,1,11.35-2.6h0.08c-0.37-1.1-.74-2.2-1.26-3.7,1.6,0.4,2.63.6,3.65,0.8,1.93-1.3,3.86-2.6,5.81-4,1.72-1.1,2.64.1,3.69,1.3,1.03-.2,2.1-0.5,3.03-0.7-0.2-1.5-.3-2.2-0.39-2.9a6.273,6.273,0,0,0-2.55-.7c-1.97.2-3.84,0.5-5.62-.8-0.29-.2-1.18.4-1.86,0.7a1.7,1.7,0,0,1-.14.1c-0.35,2.1.14,4.6-3.09,4.8a1.024,1.024,0,0,1-.14-0.6c1.06-1.4,2.15-2.8,3.23-4.2,0.01,0,.01,0,0.03-0.1H1660c0.01-.1.01-0.1,0.02-0.1-1.66.3-3.35,0.5-5,.8a9.081,9.081,0,0,1-6.06-.7,7.029,7.029,0,0,0-4.94-.8c-2.53.7-5.12,1.7-7.5-.5a1.85,1.85,0,0,0-1.63,0,10.39,10.39,0,0,1-6.05.1,4.741,4.741,0,0,0-3.33.1c-2.47,1.5-4.34.1-7.71-1.2,2.01-.1,2.75-0.3,3.45-0.3,3.23,0.3,5.76-1.4,8.35-3,1.4,1.1,2.72,2.2,4.65,1.5a3.21,3.21,0,0,1,1.67.1c1.57,0.1,10.76-1.6,12.36-2.1a3.491,3.491,0,0,1,2.66,0,5.346,5.346,0,0,0,5.82.2,21.755,21.755,0,0,1,2.69-.9c0.24-1.7-1.3-1.8-2.13-2a22.655,22.655,0,0,0-4.51,0c-1.85.1-3.7,0.1-5.55,0.2a4.751,4.751,0,0,1-1.55.5c-7.26-.3-14.48.8-22.11,0.8,0.42-.9.75-1.7,1.08-2.4-0.32-1.1-1.24-.5-1.89-0.6a16.392,16.392,0,0,0-2.17-.3,5.9,5.9,0,0,0-.26,1.1c0,2.2-.74,3.1-2.31,2.7-2.77-.7-5.42-1.7-7.13-4.2-0.48-.7-0.98-1.4-1.46-2.1-0.87,1-1.73,0-2.57,0-4.09.4-8.17,1-12.59,1.5-0.32-1.1-.64-2.6-1.15-3.9a1.761,1.761,0,0,0-1.3-.9,1.225,1.225,0,0,0-1.12,1.6c0.13,1,.41,1.9.6,2.8-0.93.9-1.82,1.7-2.55-.1a10.4,10.4,0,0,1-.47-2.1c-2.23.4-2.23,0.4-3.87-1.3a4.679,4.679,0,0,1,.28-1c1.1-1.7,2.3-3.4,3.3-5.3a5.7,5.7,0,0,0,.2-2.2c-1.22,1.6-3.05,1.9-4.84,2.3a40.754,40.754,0,0,0-6.02,1.5c-3.37,1.2-3.31,1.3-7.29-.4a2.621,2.621,0,0,0-1.69,1,3.644,3.644,0,0,0-.3,1.6c-4.24,0-8.4-.1-12.22,1.8-3.14-.4-6.22.3-9.31,0.6-1.85.2-3.84-.2-5.49,1.1-5.57-.6-10.39,2.9-15.86,2.9,0.31-.9.63-1.8,0.95-2.6a1.949,1.949,0,0,0-.72-0.2c-0.15.9-.28,1.9-0.41,2.9a1.917,1.917,0,0,0-.72-0.8c-2.11,0-3.65-1.2-5.14-2.4-0.02,0-.03,0-0.03.1h-0.16c-0.52,2-.63,2-3.35.6,1.45-.3,2.41-0.5,3.35-0.6a1.519,1.519,0,0,1,.06-0.2c0.05,0,.08.1,0.13,0.1,0.23-.6.44-1.2,0.67-1.8h-3.05c0.01-.8.02-1.7,0.04-2.5,0.38-.7.75-1.3,1.13-2-2.31-1.2-4.23.1-6.19,1.1,1.03,0.4,2.06.9,3.1,1.3a6.815,6.815,0,0,1-5.63,1.6,6.235,6.235,0,0,1-3.53,1.3c-1.88.2-2.8-.7-3.38-2.5-3.4.5-6.66,1-9.58,2.7-1.1.7-2.02,0-3.02-.1-1.56-.1-3.19.9-4.82,1.2a2.366,2.366,0,0,1-1.16-1,0.892,0.892,0,0,1,.33-0.9,15.712,15.712,0,0,1,1.95-1.2c2.6-1.4,5.16-3,7.81-4.4,1.13-.6,2.65-1.4,3.63-1.1,2.67,0.9,5.12.2,7.67-.2l-0.06-.2c2.28-1.7,5.09-.7,7.54-1.5-0.05-.7-0.11-1.4-0.18-2.4,1.39-.7,2.84-1.6,4.25-2.3,0.19-1.1.34-2,.52-3.1a38.966,38.966,0,0,0,3.96-1.4c1.57,0.9,1.79,2.5.79,3.4-0.72.7-2.45,0.6-1.96,2.3,1.31,1.1,2.79-1.4,4.13.4-0.91.8-1.81,1.5-2.76,2.4a2.8,2.8,0,0,0,3.3.5c1.67-.9,3.23-2,4.93-2.8,2.21-1,4.3-2.2,6.94-2.2,1.59,0,3.67-.5,4.64-1.6a3.748,3.748,0,0,1,3.69-1.5c1.48-1.9,3.69-1.7,5.67-2.2a3.157,3.157,0,0,0,1.08-1.1,20.2,20.2,0,0,0,2.29-3c0.39-.7-0.24-1.3-1.51-1.3-0.3,1.1-.64,2.3-0.99,3.4-1.34-1-2.67-2-2.74-3.9-1.67,0-3.38.3-4.87-.1-2.93-.8-5.62,1.9-8.55.3-0.31-.1-1.14.8-1.76,1.1-1.86,1-1.91,1-4-1.2-0.8,1.8-1.99,2.8-4.01,2.4-0.03.1-.06,0.1-0.09,0.2a0.251,0.251,0,0,0-.23-0.1,2.555,2.555,0,0,1-.77.3,1.25,1.25,0,0,1-.55-0.5,1.1,1.1,0,0,1,.28-0.3,4.714,4.714,0,0,1,1.04.5,0.14,0.14,0,0,1,.15-0.1h0.17c0.58-1.1,1.16-2.2,1.74-3.2-2.56-.3-4.82.9-7.23,1.5h0.01c-0.07.1-.13,0.1-0.2,0.2a6.423,6.423,0,0,1,.19,1.5,0.948,0.948,0,0,1-.73.7,1.079,1.079,0,0,1-.87-0.5,1.051,1.051,0,0,1,.28-0.9,5.8,5.8,0,0,1,1.13-.8c-0.01-.1-0.01-0.1-0.02-0.1a0.221,0.221,0,0,1,.21-0.1c-1.12,0-2.38-.4-3.31.1a19.33,19.33,0,0,1-7.11,1.6,1.78,1.78,0,0,0-1.08.2c-2.5,2.8-5.35,2-8.28.9a2.767,2.767,0,0,0-1.31.5c0.89,0.6,1.83,1.1,1.15,2.7-7.08,1.3-14.25,2.7-21.43,4.1a15.3,15.3,0,0,0-2.14.7c-2.06,1-4.05,2.2-6.48,1.4-3.38,1.9-7.3,1.5-10.82,2.7a4.231,4.231,0,0,1-2.01.7c-2.93-.6-5.5.2-8.23,1.3-2.58,1-5.5,1.1-8.24,1.7-7.71,1.7-15.34,3.8-23.12,5-6.33,1-12.28,3.5-18.74,3.9-2.73.2-5.4,1.5-8.11,2.3-2.71.7-5.42,1.6-8.17,2.2-3.29.7-6.73,0.2-9.97,1.7a29.114,29.114,0,0,1-9.15,2.3,87,87,0,0,0-10.23,1.9,157.876,157.876,0,0,1-19.24,4.1,5.4,5.4,0,0,0-2.15.7c-2.97,1.8-6.28,2.3-9.13,2.8-1.71-.9-3.08-1.6-4.47-2.3h-0.14c0.41,0.8.93,1.7-.09,2.4-2.92,2-6.35,2.2-9.7,2.4a3.7,3.7,0,0,1-3.03-1.8c1.01-1.8,2.26-1.6,3.64-1.3,0.87,0.2,2.5.4,2.58,0.1,0.99-2.9,2.15-.2,3.37-0.1,0.23-.9.47-1.7,0.81-2.9,0.84,0.4,1.64.8,2.42,1.2a0.607,0.607,0,0,0-.07-0.1c0.07,0,.15.1,0.21,0.1,4.75-1.4,9.52-2.9,15.02-4.5,0.5-.1.98,2.2,2.63,1.2,1.47-.9-0.3-2.1.39-3,1.83-1.6,3.87-1,5.89-.7-0.35.5-.69,0.9-1.04,1.4,0.23,0.3.45,0.7,0.67,1a4.688,4.688,0,0,0,1.53-1.4c0.44-.9-0.11-1.2-1.01-1,0.99-.7,1.95-2.1,2.97-2.1,2.82-.2,5.18-1.7,7.84-2.2h0c1.17-.8,2.32-1.5,3.48-2.3-2.86-1.6-5.65-.2-8.12.8-3.24,1.2-6.34,2.4-9.83,1.8-1.11-.1-1.63.5-2.4,1.1a13.585,13.585,0,0,1-6.19,2.6,52.3,52.3,0,0,0-8.62,2.4c-3.37,1.2-6.87,1.9-10.16,3.4-1.95.9-4.28,0.9-6.44,1.2-2.77,2.5-6.13,2.6-9.54,2.5,2.66-2.8,6.1-2.6,9.52-2.6,0.74-2.3,2.89-2.6,4.82-3.1,1.06-.3,2.36-0.2,3.25-0.7,3.46-2.2,7.39-2.7,11.21-3.7a14.906,14.906,0,0,0,2.19-.4,50.556,50.556,0,0,1,4.92-2.5c1.72-.5,3.62-0.1,5.34-1.3a5.746,5.746,0,0,1,3.71-.4c3.61,0.5,6.01-1.4,8.07-3.9a2.657,2.657,0,0,0-.1-1.5c-1.27-1.4-2.82-.4-4.19-0.5-1.9-.3-3.66-1.1-4.2,1.7-2.2,0-3.39,2.8-6.13,2-1.14-.4-2.84.7-4.12,1.4a12.3,12.3,0,0,1-9.23,1.3c-0.47.9-.94,1.9-1.56,3.1-0.96-.4-1.87-0.9-2.78-1.3-1.36,2.4-4.5.3-6.26,2.7-1.32,1.9-4.01,2.7-6.3,4.1-0.93-.4-1.99-0.8-3.04-1.2a7.436,7.436,0,0,0,1.79-1.3c0.64-.6.99-1.7,1.72-2.1a49.466,49.466,0,0,1,5.26-2.2c-3.33-2.3-3.34-2.3-6.2-.4a21.694,21.694,0,0,1-7,3.4c-1.23.3-3.17,0.9-3.41,2.9,1.82,1,2.42-.8,3.56-1.1,0.44,1.2.84,2.4,2.55,1.6a2.515,2.515,0,0,1-2.27,2.1c-2.1.3-4.49,0.5-5.71,3.4,1.03,0.4,2.05.8,3.08,1.2a4.823,4.823,0,0,1-5.26.8,34.44,34.44,0,0,0-3.91-1.3c0.68-2.3,1.1-4.7,4.64-4.7a6.39,6.39,0,0,0-.61-2.2c-0.79-.9-1.81-0.4-2.52.2a26.227,26.227,0,0,0-2.88,3c-1.94-.8-3.82-0.4-5.8.6-2.52,1.2-4.93,2.9-7.91,2.9-1.23,1.9-3.2,1.8-5.06,2.4-1.05.3-1.41,2.4-2.91,2.9l-0.14.1,0.14-.1c-3.71,2.3-3.74,2.3-2.54,6.6a3.782,3.782,0,0,1-1.36,4.1,9.588,9.588,0,0,1-5.24,1.9c-2.12.3-4.24-.1-6.41,1.1-2.01,1.2-4.78.9-7.1,1.6-2.15.7-4.1,2-6.23,2.8-3.35,1.3-6.77,2.4-10.17,3.5-4.83,1.6-9.17,4.3-13.91,6.2-0.88.3-1.76,0.8-2.63-.6a47.665,47.665,0,0,0,5.36-2.8c0.77-.5,1.07-1.7,1.61-2.7-2.86-1.2-3.27,3.7-6.03,1.9,3.74-4.8,3.74-4.8,1.97-6.6-1.86,3.3-4.89,5.6-6.76,8.8-1.1,1.8-3.14,1-4.55,1.8-1.78,1-3.11.5-4.6-.8-1.37-1.1-5.32-.9-6.8.1a18.292,18.292,0,0,1-1.73,1.4c-3.35,1.6-8.71,6.4-9.55,11-0.85,4.5-5.93,8.2-6.77,11.7a2.51,2.51,0,0,0-.1.6H1168v22.2h560v-89.1S1625.44,15271.9,1622.27,15270.3Zm-86.13-53.9c0.69-2.3,1.72-2.7,5.18-2.2a0.336,0.336,0,0,0,.13-0.2h0.46c0.16-.1.31-0.2,0.49-0.3a2.252,2.252,0,0,1,.35.3h-0.84a0.635,0.635,0,0,1-.35.2h-0.24a40.146,40.146,0,0,1-2.86,3.8,2.812,2.812,0,0,1-2-.1A1.763,1.763,0,0,1,1536.14,15216.4Zm-3.28-.2c-2.19,2-4.71,1.8-7.34,1.4C1528.75,15215.1,1529.04,15215.1,1532.86,15216.2Zm-261.19,45c-0.01.1-.03,0.1-0.02,0.1h-0.12a10.839,10.839,0,0,1-.56,2c-0.81,1.9-2.36,2-3.74.3a2.836,2.836,0,0,1-.4-1.3c1.45-1.6,3.09-1.2,4.7-1,0.02,0,.03-0.1.05-0.1h0.09a1.438,1.438,0,0,1,2.01-1.5,7.024,7.024,0,0,0,1.45,0,1.38,1.38,0,0,0,.03-0.2c0.11,0.1.17,0.1,0.27,0.2,1.65,0.1,2.19-1.4,3.15-2.3,0-.1.02-0.1,0.02-0.2a0.406,0.406,0,0,0,.09.1c0.85-.9,1.67-1.9,2.57-2.7a0.912,0.912,0,0,1,.99.1,1.072,1.072,0,0,1,.53.9c0.12,1.8-.85,2.7-2.7,2.2-0.5-.1-0.94-0.4-1.39-0.5h-0.05a0.53,0.53,0,0,1-.06.1c-0.13,3.5-.63,3.8-3.15,2.3h-0.3c-0.28,2.8-.62,3-3.12,1.8A0.737,0.737,0,0,1,1271.67,15261.2Zm12.76,4.8c-3.88-.3-7.42.7-11.04,1.8-1.18.4-1.44-.8-0.89-2.1,5.28-1.1,10.63-2.6,16.19-2.8l0.33,1.2C1287.48,15264.7,1285.91,15266.1,1284.43,15266Zm17.55-5.7c-2.44,1.2-4.92,1.6-7.13-.5h-0.03a4.6,4.6,0,0,1-.17,1.6,2.948,2.948,0,0,1-1.34,1.4,1.4,1.4,0,0,1-1.75-1.6c1.07-.4,2.17-0.9,3.26-1.4v-0.1c0.01,0,.02.1,0.03,0.1,2.42-.6,4.86-1.2,7.95-2C1302.39,15259.1,1302.37,15260.1,1301.98,15260.3Zm177.28-20.9c-2.89.8-5.82,1.3-8.77,1.9h-0.01a1.983,1.983,0,0,0,.11.2c-0.07-.1-0.15-0.1-0.23-0.2a4.184,4.184,0,0,1-1.4.7,6.7,6.7,0,0,1-1.97-.2,0.694,0.694,0,0,1-.12-0.5c0.62-.3,1.27-0.9,1.87-0.8a3.96,3.96,0,0,1,1.62.8h0.12c-0.29-.6-0.56-1.2-0.88-1.8-0.29-.5-1.48-0.4-0.98-1.7,4.53-.1,8.27-4.1,13.22-2.9C1481.14,15238.1,1480.75,15239.1,1479.26,15239.4Zm33.52,0.5c-0.39,1.2-1.43.9-2.31,1.1-1.51.3-2.44-.6-3.4-1.4h-0.04c-0.2.5-.36,1-0.59,1.5a1.61,1.61,0,0,1-.41.3c-0.16,0-.32-0.1-0.48-0.1a2.062,2.062,0,0,1,.24-0.9,6.11,6.11,0,0,1,1.22-.8h0.02a0.34,0.34,0,0,1,.01-0.1s0.02,0,.03.1c1.03-.3,2.07-0.5,3.11-0.7,0.92-.2,1.84-0.5,2.51.5A0.61,0.61,0,0,1,1512.78,15239.9Zm95.48,10.2c0.13-.2.25-0.5,0.38-0.7,0.03,0,.05,0,0.07.1,0.01-.1.02-0.1,0.04-0.1a1.47,1.47,0,0,0,.13.1c2.17,0.7,4.74-1.1,7.07.9-4.24,1.1-4.34,1.1-7.07-.9h-0.17q-0.24.3-.45,0.6h-0.04a0.305,0.305,0,0,1-.15.2C1608.13,15250.2,1608.19,15250.2,1608.26,15250.1Zm-26.96-14.1a23.224,23.224,0,0,1-2.18,3.7c-2.58-1.2-2.91-1.7-2.11-3a8.8,8.8,0,0,1,1.56-2.3,1.946,1.946,0,0,1,1.94-.2A2.111,2.111,0,0,1,1581.3,15236Zm10.46,21.7h-0.01c-1.16-.3-2.32-0.5-3.47-0.8-0.08.1-.14,0.1-0.21,0.2-0.15,0-.3-0.1-0.45-0.1a2.519,2.519,0,0,1-2.37-.4c-0.1,0-.19-0.1-0.3-0.1h-0.28a12.805,12.805,0,0,1-.72,1.5,1.54,1.54,0,0,1-.9-0.1,2.505,2.505,0,0,1,.35-1.2,2.544,2.544,0,0,1,1.27-.2c0.04-.1.07-0.1,0.11-0.2,0.15,0.1.31,0.2,0.47,0.3,0.79,0.1,1.59.3,2.37,0.4a0.488,0.488,0,0,0,.35-0.1h0.31c1.39-1.3,2.41-.1,3.47.8h0.01c0.38-1,.37-2.7,1.69-2.6,3.51,0.3,7.09-.9,10.52.6a0.251,0.251,0,0,1,.23-0.1h0.15c0.28-.9.59-2,1.66-1.7a19.653,19.653,0,0,0,8.36.3c1.35-.3,2.35.7,3.05,1.8h0.03a0.847,0.847,0,0,0,.14.1,2.273,2.273,0,0,1,1.87-1.7c3.14-.3,6.28-0.6,9.27.9,0.95-.5,2.14-1.7,2.81-1.4,1.85,0.7,4.3-.9,5.71,1.4-3.38,2-3.38,2-7.85,1.5-1.79,1.4-3.99.6-5.9,1.1-2.46.6-4.24-.3-5.91-1.8-0.02,0-.05.1-0.07,0.1-0.03-.1-0.07-0.1-0.1-0.2-1.74,2.6-1.96,2.7-3.9,1.1a3.412,3.412,0,0,0-2.36-.9c-2.27-.1-4.61.4-6.81-0.6a1.462,1.462,0,0,1-.05.2,0.431,0.431,0,0,0-.33-0.1,13.649,13.649,0,0,1-5.65,1.2c-2.19.2-4.37,0.5-6.56,0.8h0Zm10.94,14.6c-1.99.3-2.62-1.8-4.18-2.2-0.61-.2-1.59-0.6-1.62-1-0.1-1.3,1.05-1.3,1.98-1.3a16.711,16.711,0,0,1,3.86-.1c1.27,0.3,2.43-1.5,3.79.1-1.81,1.7-1.19,3.2.52,4.5A31.575,31.575,0,0,0,1602.7,15272.3Z" transform="translate(-1168 -15200)"/>
</svg>
