<svg xmlns="http://www.w3.org/2000/svg" width="480" height="204" viewBox="0 0 480 204">
  <defs>
    <style>
      .cls-1 {
        fill: #d0cabc;
        fill-rule: evenodd;
        opacity: 0.8;
      }
    </style>
  </defs>
  <path id="ttl_bg_fude01.svg" class="cls-1" d="M1597.26,8439.5c-0.01.01-.02,0.01-0.03,0.02a0.688,0.688,0,0,0,.13-0.02h-0.1Zm-32.27-8.08a1.176,1.176,0,0,1,.1.3c0.44-.11.48-0.23,0.4-0.84A3.292,3.292,0,0,0,1564.99,8431.42Zm-0.93.11c-0.22-.16-0.43-0.32-0.64-0.48,0.09,0.43.17,0.86,0.26,1.29,0.04,0.21.08,0.42,0.12,0.64,0.03,0.13.04,0.23,0.1,0.23a0.2,0.2,0,0,0,.11-0.06c0.13-.11.25-0.26,0.37-0.38a1.8,1.8,0,0,0,.46-0.5,0.356,0.356,0,0,0-.16-0.28A5.524,5.524,0,0,0,1564.06,8431.53Zm3.73-.33s0.03-.18.03-0.22a0.735,0.735,0,0,0-.49-0.35C1567.41,8431.1,1567.48,8431.22,1567.79,8431.2Zm0.69,0.57,0.02,0.19a2.574,2.574,0,0,0,2.37.55A1.911,1.911,0,0,0,1568.48,8431.77Zm73.07,20.91a0.536,0.536,0,0,1,.11.05l-0.03-.09a0.142,0.142,0,0,0-.04.02c1.66-.97-0.37-1.32-1.01-1.26l1.01,1.26A0.147,0.147,0,0,1,1641.55,8452.68Zm-237.4,83.37c4.71-3.79,4.66-5.44,10.19-7.21a33.293,33.293,0,0,1,6.28-1.2,20.823,20.823,0,0,0,4.36-.99c1.54-.41,3.08-0.83,4.63-1.21a66.859,66.859,0,0,1,9.49-1.76,5.659,5.659,0,0,1,.78-0.61,25.992,25.992,0,0,1,6.77-2.78c1.28-.39,2.57-0.76,3.86-1.12,0.57-.16,1.14-0.31,1.71-0.47,0.18-.06,1.73-0.67,1.73-0.68a1.955,1.955,0,0,0-1.16-1.5,5.533,5.533,0,0,1-1.42-1.1c-0.09-.12-0.74-1.32-0.79-1.31-3.6.18-39.12,5.16-39.12,4.62-0.01-2.21,17.18-6.84,18.97-7.06,0.68-3.44,2.67-.82,5.44-1.58,0.29-.57.97-1.24,1.6-0.94,7.33,0.87,16.2-2.17,23.13-4.35,2.42-.77,10.28-5.52,12.85-4.9a1.125,1.125,0,0,0,.52,1.65c-0.28.7,0.09,1.13,1.08,1.28a4.632,4.632,0,0,0-.15-1.6,1.3,1.3,0,0,0,.13-1.02c0-.01,1.31-0.34,1.39-0.36,0.96-.22.68-0.67,1.22-1.41,0.45-.62,1.72-1.46,2.45-1.09,0.48,0.25.33,0.86,0.64,1.17,0.77,0.76,2.56-.15,3.42-0.33,1.15-.23,2.29-0.47,3.44-0.69,2.5-.51,5.01-0.99,7.53-1.46,4.81-.9,9.63-1.77,14.47-2.44,1.7-.24,3.4-0.46,5.1-0.56,0.62-.03,1.9-0.3,2.44.17a0.256,0.256,0,0,1,.08.11c2.42-.99,4.88-3.06,7.5-2.76a1.021,1.021,0,0,0,1,1.13c0.47,0.14.85-.57,0.86-0.99,2.63,0.11,7.55-3.42,9.85-.96,2.5-.94,13.66-4.2,14.63-2.55,11.56-4.6,30.85,3.66,39.87-5.83a2.9,2.9,0,0,1-2.52-2.05c0.86-3.6,28.44-1.97,30.37,1.92,3.61-1.35,10.05-6.97,13.89-6.53-0.75-4.84-2.45-.99-4.72-2.95-0.6.12-10.47-9.35-10.45-8.61-0.18-5.63,32.56,2.75,34.69.51a9.511,9.511,0,0,0-3.24-2.1c-0.8-.32-1.67-0.49-2.45-0.89a1.316,1.316,0,0,1-.83-1.46,8.347,8.347,0,0,1,.38-1.43c0.13-.42.66-1.09,0.26-1.5-0.49-.5-1.91-0.3-2.53-0.44a2.75,2.75,0,0,1-1.61-.84,1.47,1.47,0,0,0-.89-0.9,0.951,0.951,0,0,1-.58-0.33c-0.55-.67-0.39-1.73-1.21-2.11a1.664,1.664,0,0,0-1.2-.1,2.862,2.862,0,0,0-1.04.72c1.04,1.59-.89,1.55-1.4,1.26a3.263,3.263,0,0,1-3.42-1.33l-0.12.01c0.46-.42-4.78,2.68-2.75-0.38a2.929,2.929,0,0,0-.51-0.59c-4.11.56-42.46,2.6-43.49-1.81-0.46-1.97,16.69-3.31,18.08-3.17-0.09,1.12,1.79,1.65,1.75.06,1.35,0.01,2.75.06,3.79-1.24-0.02-.05-0.03-0.1-0.05-0.15a5.818,5.818,0,0,1,1.09-.71,2.231,2.231,0,0,0,1.39-.37,19.021,19.021,0,0,0,2.03-2.85c0.05-.07.56-0.82,0.55-0.83a0.73,0.73,0,0,0,.61.23l0.05,1.86a7.084,7.084,0,0,0,5.23-1.96,0.707,0.707,0,0,0,.94.23l1.45,4.27,3.36,0.05a6.525,6.525,0,0,0-4.27-4.93c0.53-1.86-2.48-1.41-1.6.21a12.6,12.6,0,0,1-4.37-.38,0.914,0.914,0,1,0-1.63.11c-2.12.96-4.96-.09-7.13,0.08,0.88,1.05,1.63,1.61,1.67,3.05a1.079,1.079,0,0,0-.48,1.45c-0.64.37-1.78-.65-2.15-1.13-0.33.75-.65,1.46-0.96,2.16a0.793,0.793,0,0,0-.45-0.11l-0.13-2.54c-2.24-.74,1.11-2.33,1.21-2.39-2.72-2.32-5.48.88-8.27-.91-8.21,1.01-1.64-4.92-4.43-7.58a5.743,5.743,0,0,1-8.51-.93c-0.14.83-1.02,2.83-2.05,1.97-1.36,1.51-4.81,3.14-6.16,1.83a1.222,1.222,0,0,1-1.76-.69c-1.29,1.73-2.27,1.42-2.9-.74a4.105,4.105,0,0,1-1.32.77,2.227,2.227,0,0,1-1.22.13c-0.82-.2-1.11-1.04-1.45-1.83-0.55-1.24-1.72-.97-2.16.19a1.612,1.612,0,0,1-.97,1.3c-1.52.54-2.03-.92-3.22-1.68-1.44.65-2.28,1.01-3.7-.2-1.69,1.03-.99-2.08-0.59-2.73a7.2,7.2,0,0,1-4.52-.07c1.42,1.64,1.81,4.71-.07,5.59-2.71,4.02-4.04-1.9-4.79-3.09a1,1,0,0,1-1.24-1.31c-2.84.51-4.74-.41-3.64-3.66a3.157,3.157,0,0,0-1.3.09,5.091,5.091,0,0,0-1.06.8c-0.5.43-.97,0.9-1.47,1.32-0.61.51-2.4,2.01-2.56,0.25a24.039,24.039,0,0,1,1.62-5.18,3.678,3.678,0,0,0-1.59-.47,0.815,0.815,0,0,0-1.51-.06c-2.6-1.31-3.88.45-4.64,2.33a5.757,5.757,0,0,1,2.42.73c0.26-1.22,1.28-1.57,2.14-2.01a0.929,0.929,0,0,0,.41.5c-1.63,4.01-12.05,11.45-15.18,5.79a1.093,1.093,0,0,0,.13-1.62,2.65,2.65,0,0,1,1.54.37c-1.74-3.78-4.44-1.4-2.88-.18a1.085,1.085,0,0,0,.08,1.23c-0.81.81-5.79,5.89-5.87,0.36q0.855-2.88,3.19-.6l0.76-4.07c-0.86.34-1.42-.01-1.55-1.04-1.45.12-2.92,0.23-4.38,0.33-0.42,1.12-2.29.39-2.86-.02-0.37.23-1.87,1.21-1.87,1.21,0.67,0.62,3.07,6.43.34,4.99-1.1.96-1.89,0.46-2.52-.79-0.25-.5-0.19-1.09-0.39-1.58a4.478,4.478,0,0,0-1.87-2.12c-0.89-.5-1.6-0.05-2.51.03a17.219,17.219,0,0,1-2.96-.05c-0.96-.08-1.93-0.19-2.89-0.34a4.847,4.847,0,0,1-1.36-.23c-2.01,2.75-24.29,4.44-24.4,2.85-0.08-1.16,78.71-19.95,81.9-21.14-0.36-4.21,4.11-3.33,4.79-.7,6.08-2.92.47-2.62,7.1-2.75,0.48-1.1.25-1.76,0.02-2.99-1.89-.92-20.37-0.21-25.2-1.93a1.8,1.8,0,0,1-.2.19,3.714,3.714,0,0,1-.39,1.09,1.052,1.052,0,0,1-1.29.06c-1.02-.54-1.68-1.84-2.64-2.52-1.01-.72-2.95-1.07-3.64-2.28a3.333,3.333,0,0,1,.37,2.51,1.966,1.966,0,0,1-1.05,1.6,20.648,20.648,0,0,1-4.45,1.08c-1.96.35-3.92,0.64-5.89,0.96a23.83,23.83,0,0,0-4.16.86c-0.04.2-1.13,2.74-1.7,0.52a1.179,1.179,0,0,1-1.42-.29c-8.35,4.19-21.59,3.32-30.83,5.19q-19.98,4.065-39.91,8.76c-11.19,2.63-22.33,5.58-33.33,9.11-9.32,3-21.15,10.02-30.82,9.85a0.759,0.759,0,0,0-.37-0.67c4.57-4.14,15.3-6.45,21.02-7.93,1.38-2.15,5.6-1.62,7.69-1.71,4.14-4.88,24.37-11.99,30.12-10.19,6.53-7.15,27.64-6.55,36.17-8.93,2.35-.65,24.43-8.33,23.2-2.79l0.45,0.21a9.71,9.71,0,0,1,3.51-3.52,17.342,17.342,0,0,1,5.16-1.98,34.519,34.519,0,0,1,6.16-.8,61.829,61.829,0,0,1,6.53.04q3.12,0.165,6.24.53c1.77,0.19,3.54.43,5.3,0.67a3.343,3.343,0,0,0,1.2.14,0.692,0.692,0,0,0-.24-0.27,3.985,3.985,0,0,1-1.02-1.3,6.96,6.96,0,0,1-.5-2.02c1.75,1.12,1.6-3.05-.1-1.71l-0.59-.93a0.877,0.877,0,0,0,.28,1.35,1.221,1.221,0,0,0-.06.42c-7.99-.09-16.53-4.4-25.23-4.4a263.957,263.957,0,0,0-29.17,2.08c-22.82,2.53-45.61,7.78-67.87,13.95a484.688,484.688,0,0,0-60.28,21.52c-10.96,4.67-21.89,9.59-32.51,15.16-9.38,4.92-18.19,13.45-28.21,16.4-12.44,16.35-37.85,24.29-53.19,37.25,6.19,4.71,18.62-8.17,23.66-11.32,13.41-8.37,33.52-20.39,48.61-23.21a2.231,2.231,0,0,1,2.8-.54c-0.04,1.54-.76,2.31-2.17,2.33-0.13.08-.25,0.15-0.37,0.24a3.015,3.015,0,0,0-.57-0.21,1.171,1.171,0,0,0-.66.25,1.15,1.15,0,0,0-.4.58,1.045,1.045,0,0,0,.83,1.26,1.233,1.233,0,0,0,1.13-.9c6.19,0.75,22.38-11.38,28.24-13.87,11.34-4.83,24.95-11.92,37.09-12.69a7.814,7.814,0,0,1,6.25-2.5,0.918,0.918,0,0,0,.11.64c-1.86,1.16-4.08,2.6-6.28,1.89-10.17,9.46-26.86,11.79-39.06,17.01-15.55,6.66-30.6,14.6-45.89,21.97-13.57,6.53-25.92,14.73-39.11,21.88-4.68,2.54-21.94,13.58-25.79,11.31-0.46,1.09.29,3.02,0.75,4.16,4.26-.67,45.14-16.86,45.22-14.14-0.74.69-1.49,1.38-2.24,2.06,10.17,7.74,66.45-30.04,69.64-21.92-0.15-.38-46.37,27.73-50.03,26.06,0.84,3.17,4.7,1.69,6.73,1-0.27-4.21.5-2.91,2.51-.81,2.89-1.02,30.52-13.71,33.23-10.2-0.09,1.63-1,2.26-2.74,1.88-9.83,10.26-26.98,12.77-36.44,24.48,1.02,2.28,1.14,5.35-1.54,4.65-1.85.34,0.23,0.56-2.65,0.32-3.5,8.11-16.69,11.93-23.24,15.65-9.09,5.17-22.13,17.46-32.75,17.38a1.468,1.468,0,0,0-.52-1.02,1.018,1.018,0,0,0-1.01.43,1.054,1.054,0,0,0-.14,1.14,5,5,0,0,1,.54.89c0.76,3.14-2.55,7.17-4.4,9.03a16.428,16.428,0,0,1-4.02,3.02,8.068,8.068,0,0,1-2.06.87,3.078,3.078,0,0,0-.92.29c-1.13.61-.03,1.5-0.16,2.55-0.11.89-.8,1.47-0.89,2.38a2.487,2.487,0,0,0,.32,1.34c0.39,0.79,1.4,1.8,1.34,2.77-0.05.88-1.27,1.63-.33,2.33a1.4,1.4,0,0,0,.44.22c1.56,0.55,3.56-.13,5.08-0.53a79.883,79.883,0,0,0,8.41-2.83c3.45-1.33,6.87-2.76,10.28-4.22,3.56-1.53,7.11-3.11,10.65-4.68,3.18-1.42,6.35-2.84,9.54-4.23,3.04-1.31,6.76-3.68,10.03-3.46-0.94,3.06-1.62,6.03-3.63,8.32a35.625,35.625,0,0,1-6.61,5.52c-3.83,2.7-7.84,5.06-11.85,7.37a83.088,83.088,0,0,0-8.46,5.08c14.48,3.07,36.35-13.97,49.74-18.63,2.53-.88,5.05-1.76,7.58-2.61a40.064,40.064,0,0,0,7.52-3.06,12.16,12.16,0,0,1,7.28-1.14c1.24,0.15,2.29.89,3.4,1.03,1.82,0.22,3.5-.77,5.26-1.1a23.936,23.936,0,0,0,5.25-1.52c4.49-1.92,8.73-4.48,13.09-6.72,0.69-.36,1.39-0.7,2.09-1.01,9.54-4.1,20.44-7.18,29.33-12.86C1370.38,8543.93,1398.73,8531.44,1404.15,8536.05Zm197.41-92.6c-0.3-.07-1.79,2.51-1.86-0.4C1599.63,8440.32,1601.82,8443.51,1601.56,8443.45Zm-19.17-7.49c0.54-.17,3.22-2.41,3.4.08C1585.98,8438.81,1580.87,8437.57,1582.39,8435.96Zm0.35,12.07a0.954,0.954,0,0,1,1.2,1.02C1583.83,8451.49,1580.47,8448.45,1582.74,8448.03Zm-174.38,71.07c2.24-1.84,1.3,1.02,1.77,1.4C1410.55,8520.83,1406,8521.03,1408.36,8519.1Zm-10.48,2.9c0.15-1.9,1.86-.54,2.4-0.58C1401.24,8521.37,1397.6,8525.45,1397.88,8522Zm-31.06-82.73a0.585,0.585,0,0,0-.13.02l0.1,0.02C1366.81,8439.3,1366.84,8439.27,1366.82,8439.27Zm237.61-4.59,0.63,0.67a2.52,2.52,0,0,1-.27,2.46c0.37,0.07,1.53.3,1.53,0.3,3.15-4.26,11.63-1.23,15.7-.15a1.211,1.211,0,0,1,.63-1.12c0.19-1.31-.18-2.81-1.5-3.19-1.42,2.56-2.42,1.53-3.06-1.4-1.69.84-6.08,1.71-7.45-.08C1607.58,8431.64,1607.22,8435.44,1604.43,8434.68Zm18.22,2.17a0.487,0.487,0,0,1-.01.12h0.02v-0.03A0.222,0.222,0,0,0,1622.65,8436.85Zm-33.06,46.66c4.82,2.55,9.69-.46,13.93.3l0.49-2.17a1.978,1.978,0,0,0-.28-0.41,7.1,7.1,0,0,1-1.63-.26C1598.64,8480.13,1593.27,8482.69,1589.59,8483.51Zm7.67-44.06c1.94-1.14,5.19-2.41,7.31-1.71-0.95-.88-1.37-2.07-0.41-3.2-1.22-1.74-1.7-1.66-3.53-1.01-0.3.7-.77,1.13-1.4,0.64a1.375,1.375,0,0,0-.8-0.61,1.013,1.013,0,0,0-.33.86,5.015,5.015,0,0,1-.26,1.49c-0.38,1.08-1.14,1.03-1.86.32-0.27.16-.53,0.31-0.79,0.47l-0.13.15C1594.71,8438.29,1595.74,8439.11,1597.26,8439.45Zm-0.03.03-0.1.02h0.21Zm-135.89,73.64c-0.11-.17-0.22-0.34-0.33-0.52-0.87,1.17-1.83,1.25-2.77.13-2.77,2.87-4.7-.34-6.43,1.46l2.33,2.72c0.91-.39,1.98,1.13,2.71,1.44,2.09-.08,2.31-1.17,3.71-2.5,0.01-.03.01-0.07,0.02-0.1a1.029,1.029,0,0,1-.34-1.79Zm-7.17,3.84,0.01-.01a0.3,0.3,0,0,0-.13-0.02C1454.08,8516.94,1454.15,8516.95,1454.17,8516.96ZM1565,8427.89l0.67,2.13h0c5.49-2,4.76-2.93,4.76-3.91C1570.44,8428,1566,8426.44,1565,8427.89Zm14.6,0.88c1.52-.29,5.82-0.65,6.94-1.51,1.62,2.53,2.01-3.53.07-1.26l-0.9-.96-0.27.45c0.35,0.24.7,0.46,1.05,0.69a1.1,1.1,0,0,0-.13.46c-1.05-.05-2.7.12-3.39-1.1a4.6,4.6,0,0,1,.22-0.45,2.864,2.864,0,0,0,.15-0.41,1.2,1.2,0,0,0,.02-0.65,0.656,0.656,0,0,0-.35-0.38,0.723,0.723,0,0,0-.85.08,1.344,1.344,0,0,0-.32.49,1.884,1.884,0,0,0-.07.55c-0.75.11-1.73,0.27-1.76,0.27-0.52,1.17-.9,2.6-2.35,2.36C1578.5,8428.44,1578.99,8428.88,1579.6,8428.77Zm75.01,29.24-2.48-2.32c-0.99.74-2.61,0.68-2.58,2.49A6.409,6.409,0,0,0,1654.61,8458.01Zm-78.56-23.29s1.69-.81,2.55-1.22c-0.02-.78-0.03-1.37-0.05-1.92a2.172,2.172,0,0,0-.81-0.36c-4.24,1.86-2.98.45-3.34,2.84Zm-28.2-3.13a0.86,0.86,0,0,1,.32,0,0.947,0.947,0,0,1,.54.26,1.31,1.31,0,0,1,.33.6,1.981,1.981,0,0,1,.08.41c0.03,0.22.16,0.14,0.31,0.05s0.27-.2.41-0.29a6.852,6.852,0,0,1,.69-0.4,2.775,2.775,0,0,0,.99-0.79,5.157,5.157,0,0,0,.67-2.16c-1.9.59-4.09,0.17-5.73,1.12l1.06,1.27A2.83,2.83,0,0,0,1547.85,8431.59Zm2.9-8.88c-0.63,1.01.48,3.16,0.75,4.26h0c1.24-1.66,1.24-1.66,1.37-3.9C1552.16,8422.95,1551.45,8422.83,1550.75,8422.71Zm-25.19,3.47-1.02-1.7c-1.09.52-2.18,1.04-3.26,1.57-0.01.8,2.45,1.62,2.93,1.79,0.74-.11.92,0.63,1.07,1.22,1.05,0.15,2.11.28,3.17,0.4h0C1528.25,8425.64,1526.84,8428.34,1525.56,8426.18Zm67.1-.55c-1.18.36-2.34,0.75-3.49,1.19C1592.15,8428.71,1593.86,8425.52,1592.66,8425.63Zm-121.39,91.03c0.17,0.15.36,0.31,0.55,0.51,0,0,.78-2.94.96-3.61a1.022,1.022,0,0,0-1.4-.59,0.939,0.939,0,0,0-1.08-.46c-1.03-2.57-7.46,1.45-8.5,2.38,0.92,3.19,4.07-1.03,5.46-.03,0.78-.66,1.94-0.05,2.74-0.74a0.761,0.761,0,0,0,.58.27A1.982,1.982,0,0,0,1471.27,8516.66Zm178.04-64.19-0.13-.61s-2.01-.1-2.52-0.13c-0.61,1.03-1.22,2.05-1.84,3.06Zm-24.38-16.36a7.135,7.135,0,0,0-2.27.86v1.07c1.07,0,2.13.01,3.2,0.01a1.206,1.206,0,0,0,.31-1.17,1.035,1.035,0,0,0,.57-1.24,1.308,1.308,0,0,0,.15-0.05c0.71-1.8-1.47-1.59-2.1-1.6,0.1,0.43.22,0.86,0.36,1.28A0.853,0.853,0,0,0,1624.93,8436.11Zm-175.76,86.41q2.325,1.275,3.91-1.25-2.37-.99-3.7.61A6,6,0,0,0,1449.17,8522.52Zm98.66-95.44-0.02-4.48c-0.24-.05-0.59-0.13-0.91-0.21,0.33-1.76-2.38-1.24-1.63.28a8.143,8.143,0,0,0-2.9,1.62l0.45,2.22c0.3-.32.62-0.61,1-0.95a6.915,6.915,0,0,0,1.95-2.44,0.449,0.449,0,0,0,.53,0c0.37,0.93.77,1.89-.04,2.79Zm113.01,27.08-1.89-1.04c-0.08.57-.15,1.07-0.22,1.63a1.7,1.7,0,0,0,1.08.78C1660.07,8455.48,1660.29,8455.13,1660.84,8454.16Zm-97.3-48.48a0.406,0.406,0,0,0,.21-0.05,2.019,2.019,0,0,0,2.27,1.35,2.812,2.812,0,0,0-.13-2.12,1.44,1.44,0,0,1-1.61.32,1.241,1.241,0,0,0-.09-1.14,1.043,1.043,0,0,1,1.65-.42c0.53-.62,1.05-1.24,1.64-1.93-1.28-.89-3.42.17-3.82,1.99C1562.56,8403.46,1562.14,8405.72,1563.54,8405.68Zm-60.32,21.74c0.48,0.37.96,0.73,1.53,1.16,0,0,.99-1.43,1.2-1.74C1504.8,8425.79,1503.89,8425.99,1503.22,8427.42Zm72.69,1.81c0.72-.14,1.24-1.08,1.64-1.7-0.76,1.04-1.84-.16-2.75.16C1574.74,8428.74,1575.11,8429.25,1575.91,8429.23Zm3.27-22.36c-0.76,1.27,1.3,2.24,1.59.75,3.44,0.84,6.99.03,9.99,2.19h0c-0.71-2.94-2.72-2.84-4.37-4.65-1.88-.47-5.7-2.64-6.33,1.28a0.775,0.775,0,0,0-.37.02c-0.08-.34-0.16-0.69-0.24-1.02l-0.08-.08c-0.9.62-2.46,0.77-3.32,1.29a10.633,10.633,0,0,0,1.63.44A2.672,2.672,0,0,1,1579.18,8406.87Zm-18.42,23.12c1.12,0.94,1.91-1.26,1.92-2.23a0.531,0.531,0,0,0-.01-0.18,12.088,12.088,0,0,1-1.44.72,7.821,7.821,0,0,0-.96.46A1.835,1.835,0,0,0,1560.76,8429.99Zm-311.21,148c-0.93-.55-2.23-2.28-2.32.31a1.023,1.023,0,0,0-.67.31,0.975,0.975,0,0,0-.82-0.24c-0.46.32-.25,0.54,0.61,0.65-0.59,2.18,2.87,1.1,1.47-.43A1.947,1.947,0,0,1,1249.55,8577.99Zm283.07-180.19c-0.25-.64.48-2.41-0.74-2.18C1530.88,8395.81,1532.49,8397.82,1532.62,8397.8Zm-123.6,135.35a3.262,3.262,0,0,0-.95.78,7.071,7.071,0,0,0,.31,1.02c0.35-.41.7-0.83,1.04-1.26a0.623,0.623,0,0,0-.4-0.54h0Zm149.93-127.43c-0.08,1.1.25,1.56,1.29,1.59a0.494,0.494,0,0,0,.16-0.17l0.1-.12A1.834,1.834,0,0,0,1558.95,8405.72Zm58.54,37.73a11.925,11.925,0,0,0-1.23,1.58C1619.33,8445.14,1618.08,8443.04,1617.49,8443.45Zm36.79-.3c-0.14-.73-0.7-0.66-1.24-0.78-0.06.41-.1,0.68-0.14,0.95l1.44,0.13C1654.32,8443.37,1654.3,8443.28,1654.28,8443.15Zm-18.35,10.26c0.35-.38.69-0.76,1.06-1.14a3.039,3.039,0,0,0-2.88-.86l1.79,2.03Zm-354.38,73.92c0.12-.02.25-0.03,0.38-0.04C1282.33,8523.55,1278.51,8527.73,1281.55,8527.33Zm228.1-30.42c0.66,3.12,1.62-.1,1.12-0.16A4.268,4.268,0,0,0,1509.65,8496.91Zm-31.74,14.06c-0.18,2.44,2.22,3.04,3.22,1.08a2.291,2.291,0,0,0-1.12-.47A9.636,9.636,0,0,1,1477.91,8510.97Zm176.03-57.11a0.93,0.93,0,0,0,.99,1.07,8.5,8.5,0,0,0,1.08-1.37C1655.36,8453.46,1654.31,8452.97,1653.94,8453.86Zm-26.81-10.76c0.05-.04,1.36-1.26,2.31-2.14A2.647,2.647,0,0,0,1627.13,8443.1Zm7.09-8.78c-1.16-.03-1.4-0.22-1.89.91a8.8,8.8,0,0,0,1.36.1A3.028,3.028,0,0,0,1634.22,8434.32ZM1208.36,8578.9a18.405,18.405,0,0,0,.42-2.09C1207.41,8578.21,1208.17,8579.53,1208.36,8578.9Zm421.95-143.7a3.312,3.312,0,0,0,1.5,1.88h0A2.452,2.452,0,0,0,1630.31,8435.2Zm7.34-.88c-0.47.09-.94,0.18-1.41,0.26,0.11,0.35.22,0.7,0.34,1.05A1.516,1.516,0,0,0,1637.65,8434.32Zm35.82,23.68c0.2,0.09.39,0.18,0.59,0.25,0.05-.24.1-0.47,0.13-0.71-0.14.02-.28,0.03-0.42,0.05C1673.56,8457.59,1673.46,8457.73,1673.47,8458Zm-118.22-35.04a3.49,3.49,0,0,0,.05.72c0.44,0.07.87,0.12,1.31,0.15a2.879,2.879,0,0,0,.4-0.52c-0.08-.07-0.15-0.15-0.25-0.25A0.955,0.955,0,0,0,1555.25,8422.96Zm122.35,35.08a1.1,1.1,0,0,0-1.44,1.19C1676.41,8459.22,1679.3,8458.37,1677.6,8458.04Zm-8.67.29h0.01c0.13-.34.57-1.13-0.34-0.96h0a3.148,3.148,0,0,0-.27.59l0.05,0.11C1668.56,8458.16,1668.75,8458.25,1668.93,8458.33Zm-126.91-34.03a2.147,2.147,0,0,0-2.07-1.14,1.6,1.6,0,0,0-.86.45s2.11,0.56,2.84.76C1541.93,8424.37,1541.99,8424.32,1542.02,8424.3Zm28.13-17.42,0.09,0.05c0.38-.58.09-1.23-0.84-1.93A1.171,1.171,0,0,0,1570.15,8406.88Zm-40.24-11.96c-1.01-1.43-1.36-.44-1.93.67a2.9,2.9,0,0,0,.59.09A5.615,5.615,0,0,0,1529.91,8394.92Zm127.79,60.64a0.142,0.142,0,0,0,.04.02,0.355,0.355,0,0,0,.31-0.22c0.16-.17.34-0.32,0.5-0.48-0.59-.41-1-0.35-1.25.18A1.8,1.8,0,0,0,1657.7,8455.56Zm-99.45-27.79a0.31,0.31,0,0,0-.23-0.12c-0.02,0-.14-0.05-0.13.01a5.477,5.477,0,0,0-.22.72l0.63,0.03-0.01-.15a1.942,1.942,0,0,0-.02-0.24A1.055,1.055,0,0,0,1558.25,8427.77Zm19.16-4.61a7.668,7.668,0,0,0,1.08.23C1578.25,8421.37,1576.75,8422.86,1577.41,8423.16Zm20.13,2.89c0.29-.2.95-0.73,0.63-1.28a1.634,1.634,0,0,0-1.28,1.21l0.36,0.29S1597.41,8426.14,1597.54,8426.05Zm31.63-1.81c-0.51-1.29-1.12-.69-1.64.34,0.28-.01.56-0.03,0.83-0.06C1628.63,8424.44,1628.9,8424.34,1629.17,8424.24Zm2.41-1.03a0.693,0.693,0,0,1,.2-0.03C1633.65,8423.12,1634.09,8420.94,1631.58,8423.21Zm-371.97,80.5h0.01c-2.1-3.01-1.66.53-.59,0.33A1.2,1.2,0,0,0,1259.61,8503.71Zm371.03-80.65c0.03-.28.05-0.56,0.06-0.85a3.837,3.837,0,0,0-1.01-.12,1.858,1.858,0,0,0-.1.7,4.85,4.85,0,0,0,.77.21Zm-23.6,2.74,0.64-.22c-0.23-.91-0.76-0.41-0.64.22h0Zm24.27,7.02c-0.05-.07-0.11-0.15-0.2-0.27-0.39.46-.78,0.92-1.16,1.42h0C1629.99,8433.94,1631.01,8433.08,1631.31,8432.82Zm-57.56-30.12,0.12-.07a1.029,1.029,0,0,0-1.03-.77l0.42,1.11C1573.47,8402.86,1573.62,8402.78,1573.75,8402.7Zm56.6,35.04c-0.12-.23-0.25-0.46-0.4-0.69a0.565,0.565,0,0,0-.38-0.02c0.05,0.27.1,0.53,0.15,0.79Zm-60.39-15.02c0.03,0.25.07,0.48,0.11,0.72l0.37-.01-0.02-.16a5.058,5.058,0,0,0-.08-0.52A0.748,0.748,0,0,0,1569.96,8422.72Zm34.97,2.27h0a0.879,0.879,0,0,0-.88-0.94,2.791,2.791,0,0,0,.23.76A1.916,1.916,0,0,0,1604.93,8424.99Zm-5.44,1.7-0.07-.7a0.777,0.777,0,0,0-.64.86v0.01Zm64.06,30.95c0.03-.54.18-1.06-0.69-0.9a3.08,3.08,0,0,0-.45.84c0.42,0.02.78,0.04,1.13,0.08Zm-51.63-13.22a0.922,0.922,0,0,1-.34-0.34c0.22,0.41,1.17,2.12,1.2,2.16A1.766,1.766,0,0,0,1611.92,8444.42Zm55.49,11.41v-0.01c-0.11-.69-0.13-0.69-0.74-0.84l0.09,0.41Zm-38.05-11.38c0.03,0.15.14,0.64,0.14,0.64,0.13-.22.27-0.43,0.4-0.65-0.16-.02-0.33-0.05-0.49-0.08C1629.4,8444.37,1629.37,8444.44,1629.36,8444.45Zm-1.33-.05v-0.01a1.652,1.652,0,0,0-.9-0.96c0.08,0.35.18,0.69,0.29,1.02A2.475,2.475,0,0,0,1628.03,8444.4Zm-56.56-11.21,0.16-.74-0.61.21,0.44,0.52Zm99.45,24.07a0.277,0.277,0,0,0,.25-0.03,2.383,2.383,0,0,0,.23-0.48v-0.19h-0.34a0.4,0.4,0,0,0-.22.52l-0.02.09A0.2,0.2,0,0,0,1670.92,8457.26Zm-5.36.69a1.478,1.478,0,0,0,.28-0.67,0.542,0.542,0,0,0-.33-0.08,1.579,1.579,0,0,0-.27.73c0.1,0.01.19,0.03,0.3,0.04Zm-127.92-34.76a0.948,0.948,0,0,0,.73.22,2.082,2.082,0,0,0,.96-0.75l0.03-.11A8.944,8.944,0,0,0,1537.64,8423.19Zm135.24,36.25a0.574,0.574,0,0,1,.07-0.04,2.761,2.761,0,0,0,.3-0.68h-0.42a0.745,0.745,0,0,0-.2.71A2.008,2.008,0,0,0,1672.88,8459.44Zm-35.5-15.88c0.08,0.27.16,0.53,0.24,0.79l0.41,0.03c-0.08-.27-0.17-0.54-0.27-0.79A1.011,1.011,0,0,0,1637.38,8443.56Zm-76.93-17.26a4.688,4.688,0,0,0,.67-0.34,1.071,1.071,0,0,0,0-.31c0-.03-0.01-0.06-0.01-0.1a6.022,6.022,0,0,0-.67.34A1.967,1.967,0,0,0,1560.45,8426.3Zm5.84-2.29a0.28,0.28,0,0,0-.24.04,5.166,5.166,0,0,0-.26.69c0.08,0,.36-0.01.39-0.01a7.136,7.136,0,0,0,.22-0.72h-0.11Zm-191.03,143.93h0Zm79.76-21.57c-0.91.36-1.83,0.69-2.76,0.98-2.08.39-7.76,0.21-8.65,3.02a0.945,0.945,0,0,0-1.11.52c-1.05-.84-2.02-0.52-2.69.67-0.22.4-.17,0.55,0.24,0.69a1.855,1.855,0,0,0,.84.1c0.2-.04,1.49-0.76,1.55-0.69,0.63,0.74,2.08,1.01,1.78-.55,3.99-.82,7.2-0.75,11.08-2.22A2.6,2.6,0,0,1,1455.02,8546.37Zm15.34-5.12c-2.26-.93-6.55,2.09-8.22,3.61,1.61-.34,2.59.45,2.83,2.27,1.39-.41,2.78-0.81,4.17-1.22a0.938,0.938,0,0,1,.44-0.44s0.92-3.19,1.16-4.08A2.765,2.765,0,0,1,1470.36,8541.25Zm209.47-37.44c0.95,1.97,1.25,2.4-.79,3.56,2.03,1.51,3.89.26,6.05,0.66a8.817,8.817,0,0,0-.23-3.16C1682.86,8504.68,1681.64,8502.98,1679.83,8503.81Zm-217.31,42.49a4.428,4.428,0,0,0-3.64-1.11,17.956,17.956,0,0,0-1.99.68c-0.34.12-.8,0.1-0.69,0.57,0.08,0.33.32,0.6,0.38,0.94,0.02,0.13-.1,1.49-0.3,1.38,3.17,1.68,4.22-3.62,6.36-.59C1463.51,8547.4,1463.47,8546.78,1462.52,8546.3Zm206.94-38.66a0.873,0.873,0,0,0-1.47-.86,10.363,10.363,0,0,0-.58-2.97c-1.33-.53-2.11,1.17-3.29,1.43a7.519,7.519,0,0,0-.07,3.96,0.931,0.931,0,0,0-.33.26c-1.56-1.51-2.21-2.9-1.79-4.89a1.336,1.336,0,0,0,1.92.38c-0.71-.79-1.02-1.91-1.99-0.61a3.029,3.029,0,0,1-.86-0.17,1.384,1.384,0,0,0-.64,0,1.944,1.944,0,0,0-.69.46,1.125,1.125,0,0,0-.18.74,2.748,2.748,0,0,1-1.4,1.97,2.21,2.21,0,0,1-1.18.41,1.381,1.381,0,0,1-1.06-.59,6.254,6.254,0,0,1-.57-0.93,5.4,5.4,0,0,0-.44-0.9,1.025,1.025,0,0,1-1.28-1.13c-4.29-2.56-6.77,3.27-10.83-.31-1.79,1.45-2.29,4.75-4.2,5.61a0.831,0.831,0,0,0-.41-0.49c0.92-1.9.52-3.08,0.2-5.04-0.94.19-1.87,0.4-2.81,0.58a0.949,0.949,0,0,1-1.08,1.29,0.086,0.086,0,0,0-.09-0.03c-1.46-.57-2.86-1.24-4.28-1.9-5.05,5.36-23.29,2.2-30.14,3.22-12.57,1.86-25.27,3.53-37.86,5.49-12.74,1.98-25.62,3.85-38.26,6.53-7.29,1.55-21.88,9-29.38,5.69-4.68,4.87-16.71,4.08-22.43,5.03a311.977,311.977,0,0,0-33.83,7.7c-21.94,6.26-44.44,14.13-64.83,25.22-0.03,2.44,3.71,2.5,1.93,5.15,11.39-4.41,22.93-8.38,34.27-12.99,2.41-.97,4.73-2.25,7.09-3.37a44.889,44.889,0,0,1,8.76-3.31,14.317,14.317,0,0,1,3.62-.41,7.18,7.18,0,0,1,1.59.23,3.865,3.865,0,0,0,1.24.33,2.2,2.2,0,0,0,1.03-.66,8.836,8.836,0,0,1,2.44-1.08,17.607,17.607,0,0,1,5.55-.57c1.21,0.05,2.43.17,3.63,0.34,0.76-2.38,19.66-6.29,23.5-6.53,4.84-5.1,13.49,1.42,4.89,1.44-0.73,2.13-1.77,3.49-2.24,5.73,9.22-.74,17.66-3.35,26.42-6.03,2.87-2.6,3.4-3.1,5.35-.56,3.61-.77,18.18-6.03,19.72-2.7,4.86,0.2,8.71-5.1,13.6-4.18a9.459,9.459,0,0,1,.39-2.5c-0.51-4.02,6.57-7.28,6.22-3.47a2.143,2.143,0,0,0,.6.53,8.447,8.447,0,0,1,4.72-.71c-1.31-2.79,3.14-.88,3.41-0.76-0.18-2.1-.3-5.02,2.5-4.05a1,1,0,0,1,1.26,1.09c0.28,0.52,1.21,2.26,1.21,2.26,0.12-.05.24-0.09,0.36-0.13,0.55-.17,1.11-0.32,1.67-0.46,0.79-.19,1.59-0.37,2.4-0.51a26.158,26.158,0,0,1,2.64-.36,12.434,12.434,0,0,1,2.44-.01,3.65,3.65,0,0,1,1.74.56,1.465,1.465,0,0,1,.58,1.33,3.534,3.534,0,0,1-.3,1.02,3.456,3.456,0,0,1-.32.6c-0.08.12-.23,0.18-0.08,0.31a0.759,0.759,0,0,0,.34.11,4.918,4.918,0,0,1,.6.23c0.15,0.08.29,0.18,0.43,0.27,0.19,0.12.47,0.45,0.63,0.13,0.08-.15.12-0.32,0.19-0.47,0.16-.4.34-0.79,0.53-1.18a23.13,23.13,0,0,1,1.57-2.8,5.787,5.787,0,0,1,1.81-1.93,1.04,1.04,0,0,1,1.52.61,5.886,5.886,0,0,1,.47,1.65c-0.63.82-1.27,1.64-1.9,2.46,3.32,2.79,5.41.03,6.71-3.27-1.18-1.41-.82-2.35,1.1-2.83a3.168,3.168,0,0,1,1.21,3.56c6.98-3.2,3.52-2.59,9.55-1.73,0.26-2.14,4.1-4.97,3.86-2.1a0.82,0.82,0,0,0-1.28.39c-1.14-.57-1.23.78-0.11,1.29l0.24-.23a0.848,0.848,0,0,0,1.47-.27,5.4,5.4,0,0,0,6.08-1.08,2.275,2.275,0,0,1,.02-0.26c-0.75-3.06.25-6.41,3.49-6.05,1.7-1.05,3.99.49,4.98,1.85,1.61-3.22,2.48-.96,2.4.99,5.17-.15,4.31-7.03,7.18-1.41,0.72-.81,1.99-2.25,1.99-2.25,1.07-1.22,3.58,1.96,5.4,1.69-2.98-4.55,7.6-1.86,9.59-4.89a0.858,0.858,0,0,0,1.01-.1c0.02-.02.6,0.51,0.66,0.55,0.25,0.19.51,0.36,0.77,0.52a4.7,4.7,0,0,0,.85.4,0.376,0.376,0,0,0,.37.01,0.743,0.743,0,0,0,.03-0.26,5.482,5.482,0,0,1,.1-0.56c0.14-.69.47-1.85,1.28-1.83,0.95,0.04,1.54,1.47,1.78,2.32,0.9,0.8,1.39-.09,2.03-0.68-2.44-5.5,5.58-4.21,6.91-1.84,2.17,1.17,4.6-.85,6.76-0.21a1.014,1.014,0,0,0,1.09,1.57,0.8,0.8,0,0,0,.94.58c0.04-.65.12-0.67-0.51-1.04a0.678,0.678,0,0,0,.09-0.4l2.11,0.17a0.89,0.89,0,1,0,1.77.07c1.63-.11,2.27.13,2.97-1.69,0.03,0.01.05,0.03,0.08,0.04l0.01-.03a0.775,0.775,0,0,0,.85-0.22c0.24,0.32.5,0.68,0.83,1.11,1.65-2.23,3.64-3.9,6.3-4.15C1672.38,8499.8,1671.99,8507.49,1669.46,8507.64Zm-170.78,30.99c-2.7,4.19-1.25-1.03-2.88-1.41C1495.63,8537.18,1500.44,8536.15,1498.68,8538.63Zm27.37-6.85c-0.15,2.96-3.09-1.04-1.61-.81C1524.95,8531.05,1526.14,8529.94,1526.05,8531.78Zm6.27,0.47c-1,1.06-5.25,2.04-5.62-.55C1526.21,8528.27,1534.35,8530.13,1532.32,8532.25Zm70.77-11.08a2.289,2.289,0,0,0-.61.94v0.05a1.972,1.972,0,0,0,1.02,1.38c0.74,0.26,1.05-1.2,1.17-1.73-0.09-.25-0.54-1.55-0.54-1.56A6.865,6.865,0,0,1,1603.09,8521.17Zm-65.57,12.07a1.233,1.233,0,0,1,1.69.69c1.01-.82,3.06-2.08,3.16-3.63-1.03-.01-2.06.03-3.09,0.11A2.18,2.18,0,0,0,1537.52,8533.24Zm-189.98,44.35a0.952,0.952,0,0,1-.28.18c-0.19-1.66-2.61-.5-1.55.81-0.24.25-.48,0.49-0.69,0.69-0.23.49,0.78,1.02,0.96,0.99a1.344,1.344,0,0,0,.41-1.37,0.844,0.844,0,0,0,.58-0.28c0.34,0.41.69,0.84,0.69,0.84,1.47-.27,3.11-0.29,4.08-1.83Q1349.49,8575.625,1347.54,8577.59Zm306.01-74.43,1.22,1.12a1.443,1.443,0,0,1,1.71,1.05,10.279,10.279,0,0,0,.85,1.26c0.67-.94,1.34-1.88,2-2.82A6.894,6.894,0,0,0,1653.55,8503.16Zm-296.64,69.9a5.758,5.758,0,0,1-.81-0.15,5.117,5.117,0,0,1-.78.61,0.966,0.966,0,0,0-1.17,1.18,2.288,2.288,0,0,0-1.2,1.32c0.57,0.15,1.15.3,1.71,0.44l0.09-.02c1.95-1.06,3.7,2.22,2.3-1.8A11.744,11.744,0,0,1,1356.91,8573.06Zm16.39-7.17c-1.02-.68-1.69-1.31-1.01-3.32a2.937,2.937,0,0,1-3.59,1.37c0.01,0-.25.44-0.27,0.47-0.13.2-.27,0.38-0.41,0.56-0.33.43-.68,0.84-1.01,1.27a10.988,10.988,0,0,0-.95,1.29,3.041,3.041,0,0,0-.48,1.16,0.664,0.664,0,0,0,.18.62c0.14,0.06.19-.08,0.27-0.17a2.658,2.658,0,0,1,.35-0.32,4.224,4.224,0,0,1,1.16-.78,0.632,0.632,0,0,1,.73.08,1.66,1.66,0,0,1,.2,1.1,8.6,8.6,0,0,1-.15,1.15c3.27-.62,3.27-0.62,6.06-3.41A2.591,2.591,0,0,0,1373.3,8565.89Zm215.36-39.78a0.448,0.448,0,0,0,.01.12,4,4,0,0,0,3.24-3.01c-1.14.25-2.28,0.5-3.6,0.78C1588.43,8524.73,1588.54,8525.41,1588.66,8526.11Zm-227.28,44.53,2.05,0.89c-0.29-1.19-.38-2.82-0.77-3.91C1361.48,8568.24,1361.65,8569.49,1361.38,8570.64Zm190.73-42.66a6.436,6.436,0,0,0-.36-0.63c-0.76.43-1.53,0.87-2.3,1.3l-0.6.33a1.006,1.006,0,0,0-.39.25,0.5,0.5,0,0,0,.35.38,3.808,3.808,0,0,0,1.86.4,1.7,1.7,0,0,0,1.19-.49A1.837,1.837,0,0,0,1552.11,8527.98Zm-116.96,24.44a2.494,2.494,0,0,0,3.29-.23,2.417,2.417,0,0,0-1.03-.76A17.394,17.394,0,0,0,1435.15,8552.42Zm116.64-20.92c0.2,0.74.72,0.93,1.55,0.55h0l0.43-.04a1.545,1.545,0,0,0-.17-1.63C1553.17,8530.56,1551.88,8530.92,1551.79,8531.5Zm-7.52-1.28a2.8,2.8,0,0,0-.89-0.47,0.531,0.531,0,0,0-.18.01,0.8,0.8,0,0,0-.24.13,0.8,0.8,0,0,0-.36.32c-0.08.2,0.18,0.32,0.3,0.41a1.825,1.825,0,0,0,.51.28,1.361,1.361,0,0,0,1.03.02C1544.82,8530.69,1544.52,8530.39,1544.27,8530.22Zm89.93-25.42c0.3-.43.61-0.86,0.92-1.28a1.7,1.7,0,0,0-2.54.17Zm-289.32,74.6-0.24.2C1342.81,8581.15,1344.15,8582.25,1344.88,8579.4Zm218.74-52.16a10.222,10.222,0,0,0,.96-0.66,1.2,1.2,0,0,0-.26-0.61C1563.56,8525.92,1563.61,8526.63,1563.62,8527.24Zm21.57-1.55,0.09,0.33a0.944,0.944,0,0,0,.87-0.62,1.82,1.82,0,0,0-.44.17A2.443,2.443,0,0,1,1585.19,8525.69Zm1.72,0.48a3.59,3.59,0,0,0-.48.14,5.6,5.6,0,0,0,2.37.87A1.666,1.666,0,0,0,1586.91,8526.17Zm-234.53,49.68a9.058,9.058,0,0,0-.79-0.53c-0.07.07-.14,0.16-0.21,0.24q0.465,0.555.96,1.08a1.781,1.781,0,0,0,.39-0.54Zm277-61.51,0.23,0.61a6.313,6.313,0,0,0,.55-0.6,2.4,2.4,0,0,0-.12-0.38A1.3,1.3,0,0,1,1629.38,8514.34Zm-293.21,68.8c-0.47.6-.95,1.2-1.42,1.8C1335.73,8585.13,1336.07,8584.1,1336.17,8583.14Zm3.76-.27a2.191,2.191,0,0,0-.02.43,2.261,2.261,0,0,0,1,.11h0.01a3.716,3.716,0,0,0,.17-0.75s-0.81-.06-1.14-0.06Zm14.52-6.02c-0.24.35-.47,0.69-0.72,1.03q1.17,0.075,2.34.18c-0.48-.5-1.44-1.48-1.44-1.48Zm182.82-42.92c-0.11.3-.25,0.65-0.43,1.13h0l2.07-.71-1.43-.97Zm-171.77,35.76c-0.91.87-.75,1.62,0.47,2.25-0.1-.79-0.2-1.58-0.31-2.36A0.645,0.645,0,0,0,1365.5,8569.69Zm245.85-51.46a1.039,1.039,0,0,0-.6,1.51c-0.81.33-1.21-.59-1.18-1.38-1.2.66-3.39,2.23-4.77,2.49,2.14-.39,3.37.45,3.78,2.66a3.329,3.329,0,0,0,2.91-3.32,0.6,0.6,0,0,0,.47-0.14,0.687,0.687,0,0,0,.49.51l0.01-.02a1.98,1.98,0,0,0,.04-0.6,2.433,2.433,0,0,0-.25-0.2A0.99,0.99,0,0,0,1611.35,8518.23Zm-273.97,66.17a0.864,0.864,0,0,0-1.02.45c-0.03.06-.08,0.11-0.11,0.17a3.182,3.182,0,0,0-.16.32,0.932,0.932,0,0,0-.07.47,0.643,0.643,0,0,0,.72.4,2.455,2.455,0,0,0,1.15-.32,0.864,0.864,0,0,0,.55-0.72A1.356,1.356,0,0,0,1337.38,8584.4Zm273.27-67.45c-0.08.11-.38,0.54-0.38,0.55l1.01,0.33Zm-0.78.93c0.04-.05.07-0.1,0.11-0.15a0.251,0.251,0,0,0,.04-0.07,0.176,0.176,0,0,0,.04-0.05,0.1,0.1,0,0,0-.07-0.02l-0.09-.03c-0.05-.02-0.11-0.03-0.17-0.05a3.574,3.574,0,0,0-.35-0.1c-0.33-.1-0.67-0.18-1.01-0.27l1.28,1.05S1609.85,8517.91,1609.87,8517.88Zm-253.31,52.52c0.21,0.96.52,0.98,1.13,0.86l-0.13-.23C1357.12,8570.21,1357.2,8570.15,1356.56,8570.4Zm201.56-43.54a1.517,1.517,0,0,0-.02.67c0.39-.08.35,0.01,0.51-0.6l-0.01-.21A0.77,0.77,0,0,0,1558.12,8526.86Zm-196.26,46.05a0.83,0.83,0,0,0-.47.05,0.765,0.765,0,0,0-.38.31,1.446,1.446,0,0,0-.18.53c-0.53-.06-0.75.24-0.74,0.9,0.28-.14.55-0.28,0.82-0.42a3.265,3.265,0,0,0,.22.38,1,1,0,0,0,.26.2,0.628,0.628,0,0,0,.55-0.03,1.115,1.115,0,0,0,.34-1.72A0.826,0.826,0,0,0,1361.86,8572.91Zm235.18-49.19a0.847,0.847,0,0,0-1.11.4c-0.46-.4-1.11-0.97-1.4-1.22a1.981,1.981,0,0,0,1.3,1.54,1.956,1.956,0,0,0,0,.42,1.425,1.425,0,0,0,.11.35,0.975,0.975,0,0,0,.49.43,0.878,0.878,0,0,0,1.1-.32,0.963,0.963,0,0,0,.13-0.37,1.3,1.3,0,0,0,0-.44A1.056,1.056,0,0,0,1597.04,8523.72Zm-245.14,53.87a1.136,1.136,0,0,0,1.6.34s-0.92-.83-1.14-1.02C1352.36,8576.91,1352,8577.44,1351.9,8577.59Zm0.46-.68h0Zm335.58-70.14a1.982,1.982,0,0,0-.45-0.15l-0.18-.05a2.946,2.946,0,0,0,.01.42l0.65,0.19,0.03-.04A1.506,1.506,0,0,0,1687.94,8506.77Zm-10.7-.55a1.638,1.638,0,0,0-1.15,1.21c-0.1.78,0.55,0.94,0.81,1.49,0.17,0.38,1.37-1.62,1.42-1.86C1678.54,8506.19,1677.89,8506,1677.24,8506.22Zm-69.72,11.04c-0.85-.77-1.7-1.54-2.59-2.27a1.091,1.091,0,0,0-.11.06C1604.66,8517.02,1605.74,8519.33,1607.52,8517.26Z" transform="translate(-1208 -8391)"/>
</svg>
