<svg xmlns="http://www.w3.org/2000/svg" width="336.18" height="54.5" viewBox="0 0 336.18 54.5">
  <defs>
    <style>
      .cls-1 {
        fill: #c4ab79;
        fill-rule: evenodd;
        opacity: 0.5;
      }
    </style>
  </defs>
  <path id="info_ttl_fude02.svg" class="cls-1" d="M1385.6,12389.5l-0.35-.1,0.19-.1,0.21,0.1-0.05.1m2.18-1.7c-0.23-.1-0.45-0.1-0.68-0.2l-0.31-.4c-0.05-.2.08-0.3,0.31-0.3a2.29,2.29,0,0,1,.7.2,0.96,0.96,0,0,1,.35.5l-0.37.2m3.59-.9h-0.59l-0.25-.3c0.25,0,.49-0.1.77-0.1h0.01a1.163,1.163,0,0,1,.46.2l-0.09.2h-0.31m2.36-.7-0.33-.1-0.17-.1,0.25-.1,0.25,0.3m8.48-.5h-0.18l-0.17-.1,0.09-.1,0.26,0.2m1.73,0a1.843,1.843,0,0,1-.54-0.3l-0.2-.4a0.643,0.643,0,0,1,.42-0.2,4.895,4.895,0,0,1,1.45.4,8.586,8.586,0,0,1-1.13.5m20.26-.7c-0.15-.1-0.29-0.1-0.44-0.2l-0.01-.1h0.38l0.07,0.3m-4.34.5a0.406,0.406,0,0,1-.28-0.1l-0.22-.2c-0.32-.3-0.28-0.6.06-0.6h0.01a2.725,2.725,0,0,1,.68.3l0.01-.1,0.06,0.1h0.28a1.274,1.274,0,0,1,.55.2,0.547,0.547,0,0,1,.14.4h-0.04a1.141,1.141,0,0,1-.5-0.2,4.219,4.219,0,0,1-.43-0.4h-0.07l-0.05.3a0.265,0.265,0,0,1-.2.3m-8.63-1.5c0.21,0,.31-0.1.5-0.1a9.871,9.871,0,0,1,2.51-.3c0.86,0,1.79.1,2.83,0.2a0.557,0.557,0,0,1-.28.3h-0.02a2.149,2.149,0,0,0-.78-0.1,12.426,12.426,0,0,0-2,.2,6.448,6.448,0,0,1-2,.3,1.268,1.268,0,0,1-.59-0.1h-0.1a6.48,6.48,0,0,0-1.33.5h-2.07a1.327,1.327,0,0,0-.52.4h-0.74a3.339,3.339,0,0,1-.65-0.5l-0.09-.3a0.516,0.516,0,0,1,.4-0.1h0.56a9.338,9.338,0,0,0,1.74-.2,9.448,9.448,0,0,1,1.75-.2h0.88m67.49-.4h-0.21a1.374,1.374,0,0,1-.86-0.5c-0.13-.3-0.03-0.4.15-0.4,0.12,0,.27.1,0.42,0.1l0.31-.1a0.9,0.9,0,0,0,.5.1h-0.49l0.15,0.2c0.39,0.4.37,0.6,0.03,0.6m15.47-1.7-0.13-.2h0.18l0.07,0.2h-0.12m-99.98-14.3h-0.31a3.288,3.288,0,0,0-.48-0.7c0.34,0.1.6,0.2,0.62,0.2a1.71,1.71,0,0,1,.17.5m132.24-.4-0.41-.2-0.14-.3,0.4,0.2,0.15,0.3m9.34-.2-0.4-.1v-0.2l0.43,0.2-0.03.1m-6.35.4h-0.05a9.4,9.4,0,0,1-1.08-.6,0.682,0.682,0,0,1,.37-0.2h0.01a1.8,1.8,0,0,1,.64.2c0.28,0.2.33,0.6,0.11,0.6m-5.22-.6a6.969,6.969,0,0,0-.71-0.5l0.14-.2c0.17,0,.38.2,0.58,0.2,0,0.2,0,.3-0.01.5m-2.64.1a4.608,4.608,0,0,1-2.27-.8c0.52,0,.93-0.1,1.42-0.1a3.827,3.827,0,0,1,2.28.8c-0.53,0-.94.1-1.43,0.1m-18.3-2.1h0.89a2.071,2.071,0,0,1,.76.1,30.362,30.362,0,0,0,4.01.4h0.84c0.1,0,.19-0.1.28-0.1,0.45,0,.93.1,1.41,0.1a6.838,6.838,0,0,0,1.41.1h0.87c0.2,0,.51.1,0.78,0.1,0.61,0.2,1.24.5,2.1,0.8h-0.24a32.711,32.711,0,0,1-4.46-.4c-1.11-.1-2.13-0.1-3.14-0.1h-2.52a6.463,6.463,0,0,1-1.37-.1,2.572,2.572,0,0,1-1.7-.9h0.08m-10.52.5a0.985,0.985,0,0,1-.4-0.2l-0.09-.3,0.37,0.1,0.15,0.4h-0.03m8.11,0.1-0.41-.3,0.02-.3a6.165,6.165,0,0,1,.59.5l-0.2.1m-4.37-.5-0.21-.1h0.16l0.05,0.1m-9.13-.2-0.23-.1-0.14-.3,0.22,0.1,0.15,0.3m2.61-.5h0.51l0.29,0.2-0.14.1-0.66-.3h-0.01c0.3,0.3.61,0.6,0.88,0.9l-0.03.3-0.4-.1-0.35-.4a3.081,3.081,0,0,1-.1-0.7h0.01m-29.81-13.7a1.653,1.653,0,0,0-1.28.3,0.427,0.427,0,0,1-.38.1h-4.56a1.5,1.5,0,0,0-.65-0.1c-0.38,0-.74.1-1.11,0.1h-1.1a4.288,4.288,0,0,1-1.11-.1h-0.33c-0.1,0-.18,0-0.2.1a1.4,1.4,0,0,1-1.18.4h-0.66a1.542,1.542,0,0,0-.66-0.1h-0.01a38.7,38.7,0,0,0-5.99.3,8.341,8.341,0,0,1-1.61.1c-1.15,0-2.4-.1-3.56-0.1-0.33,0-.7-0.1-1.04-0.1-0.24,0-.46.1-0.64,0.1a8.465,8.465,0,0,1-2.88.4h-2.11a4.31,4.31,0,0,0-1.68.2,1.78,1.78,0,0,1-.77.1h-2.18a1.569,1.569,0,0,0-.71.1,11.082,11.082,0,0,1-3.31.4h-1.61c-1.14.8-3.54,0.2-5.03,0.7a4.22,4.22,0,0,1-1.17.1h-1.05c-0.35,0-.71-0.1-1.05-0.1h-1.05a1.1,1.1,0,0,0-1.02.4h-1.35c-1.57,0-2.83.3-4.35,0.4h-1.52a1.875,1.875,0,0,0-1.53.4h-0.9a3.727,3.727,0,0,0-1.57.3,2.333,2.333,0,0,1-1.24.2h-2.07a1.924,1.924,0,0,0-1.35.3,0.691,0.691,0,0,1-.48.1h-1.39a1.681,1.681,0,0,0-1.3.3,0.325,0.325,0,0,1-.32.1h-0.37a17.011,17.011,0,0,0-4.81.7,0.7,0.7,0,0,1-.46.1h-0.82a5.27,5.27,0,0,0-1.28.2,1.115,1.115,0,0,1-.56.2h-0.17c-1.16,0-2.06.3-3.18,0.3-1.29,0-2.02.5-3.19,0.6a29.644,29.644,0,0,0-3.15.7c-1.1.2-2.09,0.5-3.22,0.6-1.23.2-2.42,0.4-3.58,0.6-1.54.3-2.59,1.1-4.45,1.1h-0.2a3.7,3.7,0,0,0-1.07.4c-1.57.4-3.33,0.5-4.47,1.3a0.729,0.729,0,0,0-.43-0.1c-1.01,0-1.41.6-2.27,0.8a11.989,11.989,0,0,0-2.79.6c-1.16.4-2.76,0.4-3.86,0.9a1.613,1.613,0,0,0-.68.3,2.909,2.909,0,0,1-2.01.6h-0.07a5.049,5.049,0,0,0-1.85.4c-0.76.3-1.37,0.7-2.13,1s-2.1.1-2.58,0.7h-0.3c-1.4,0-1.86.8-2.82,1.2-0.98.4-1.64,1.1-3.07,1.1h-0.02a1.273,1.273,0,0,0-.91.4,2.513,2.513,0,0,1-1.27.4,12.065,12.065,0,0,0-2.12.9,0.926,0.926,0,0,1-.35.4c-2.3.1-3.14,1.5-4.98,2-0.35.1-.77,0.2-1.1,0.3-0.48.1-.8,0.4-0.32,1.1l0.15-.1,0.34,0.1-0.09.2c-0.1,0-.26-0.1-0.42-0.1l-0.02-.1a2.024,2.024,0,0,0-.94-0.2c-0.55,0-.44.5-0.29,1.1a3.474,3.474,0,0,0-1.18-.3,0.755,0.755,0,0,0-.8.6,0.9,0.9,0,0,1-.8.6h-0.55a0.257,0.257,0,0,0-.28.1c-0.73,1-2.29,1.3-3.01,2.3-0.41.6-1.05,1-1.42,1.6a0.31,0.31,0,0,1-.37.2c-2.49.2-2.84,2-3.71,3.4a2.379,2.379,0,0,1-1.03,1.1c-1.44.7-2.83,1.3-4.31,1.9-1.34.6-2.78,1.1-4.18,1.6l-0.44.1c-0.49,1.5-4.3,2.6-5.44,3.6-2.48,2.1-5.5,3.1-7.87,5.4-1.28,1.3-1.79,3,.04,3h0.13c2.26-.1,4.54-1.8,6.8-1.8h0.37c2.27,0.2.69,2,.28,3.7a2.027,2.027,0,0,0,1.06.2,7.084,7.084,0,0,0,2.77-.7,7.319,7.319,0,0,1,2.79-.8h0.18c0.35,0.9.06,1.9,0.83,2.4a2.214,2.214,0,0,0,.85.2c1.3,0,3.09-1.1,4.04-1.6,2.5-1.4,5.33-2,7.91-3.2a24.38,24.38,0,0,1,4.6-1.3,0.577,0.577,0,0,0,.46.3c0.09,0,.07-0.1.05-0.2h0.96c1.29-.7,3.11-0.8,4.73-1.2a6.658,6.658,0,0,0,1.47-.6,6.41,6.41,0,0,1,2.58-.6h0.75c0.44-.9,2.16-0.6,3.11-1.1a7.856,7.856,0,0,1,3.3-.8h0.11a4.364,4.364,0,0,0,1.16-.1c0.38,0,.77-0.1,1.21-0.1a0.836,0.836,0,0,1,.47.1,1.159,1.159,0,0,1-.54.6c-1.58.1-2.71,0.7-4.26,0.9-0.48,0-1.01,0-.69.6l-0.16.2h-0.33a4.88,4.88,0,0,0-1.39.3,2.876,2.876,0,0,1-1.38.4h-0.19l-0.08.2a6.791,6.791,0,0,0,3.8,1.4c-0.12-.4-0.44-1,0.07-1h0.24a2.594,2.594,0,0,0,.84.1,17.25,17.25,0,0,0,2.48-.5,3.619,3.619,0,0,1,1.04-.2h0.77a6.739,6.739,0,0,0,3.69-1,4.7,4.7,0,0,1,1.29-.3,0.455,0.455,0,0,1,.36-0.1h0.38c0.13,0,.26.1,0.38,0.1,0.43,0,.76-0.1.65-0.6a3.089,3.089,0,0,0,.89.1c0.87,0,1.01-.6,1.41-1.1a1.361,1.361,0,0,1,.76-0.2c0.25,0,.52.1,0.78,0.1h0.61a14.328,14.328,0,0,0,3.15-.6,10.81,10.81,0,0,0,3.4-1.2h0.53a10.09,10.09,0,0,0,4.15-.8h0.6a5.228,5.228,0,0,0,1.32-.2,5.147,5.147,0,0,1,1.31-.2h0.39c0.78-1,2.69-.9,4.08-1.3h1.09a17.665,17.665,0,0,0,3.49-.7,24.273,24.273,0,0,0,3.01-.6,7.819,7.819,0,0,1,2.74-.5c0.92-.1,1.88-0.1,2.82-0.2a1.791,1.791,0,0,0,.82-0.1,0.74,0.74,0,0,1,.83-0.5,2.43,2.43,0,0,1,1.09.2h0.14c0.21,0,.35-0.2.58-0.2h0.14c0.26,0,.57.1,0.87,0.1l0.43,0.4,0.16,0.3a1,1,0,0,1-.57.2c-0.96,0-1.94-.1-2.91-0.1h-0.37a2.157,2.157,0,0,0-1.66.5,3.028,3.028,0,0,1-1.48.3h-0.94a6.632,6.632,0,0,0-3.64.9,3.654,3.654,0,0,1-1.15.2h-0.03c-0.07,0-.15-0.1-0.23-0.1h-0.29c-0.08.7-.85,0.8-1.65,0.8h-0.9c-0.77,0-.98.4-0.74,1.2,0.25,0,.55.1,0.7,0.1h0.09c0.55-.5,1.58-0.4,2.48-0.6a18.3,18.3,0,0,1,2.48-.3c1.01,0,1.59-.5,2.58-0.6a7.79,7.79,0,0,0,2.12-.6c0.37,0.3.74,0.5,1.17,0.9a1.884,1.884,0,0,1,1.05-.5h0.5c0.44,0,0-.6.24-0.8q0.42,0.3.87,0.6a1.223,1.223,0,0,0,.69.2c0.18,0,.18-0.1.04-0.5-0.06-.2-0.19-0.5-0.08-0.5,0.81-.1,1.13-0.6,2.04-0.6a3.119,3.119,0,0,1,.9.1c0.25,0.2.55,0.5,0.82,0.7a1.231,1.231,0,0,0,.91.5h0.18a14.588,14.588,0,0,0,1.7-.7c-0.45-.1-0.85-0.2-1.45-0.3a0.66,0.66,0,0,1,.06-0.5c0.19-.1.54-0.1,0.78-0.2,0.2,0,.43-0.1.68-0.1a7.823,7.823,0,0,1,1.33.2,12.977,12.977,0,0,0,2.7.3c-0.1-.3-0.2-0.6-0.33-1a6.706,6.706,0,0,0,2.5.6h0.51l-0.09-.2,0.12,0.2a0.467,0.467,0,0,1,.32-0.2h0.05a4.852,4.852,0,0,0,1.1.2,0.994,0.994,0,0,0,1.22-1.1,0.209,0.209,0,0,1,.23-0.2,5.031,5.031,0,0,1,.98.3h3.07c0.47,0,.62-0.2.5-0.6a0.486,0.486,0,0,1-.36.3,1.467,1.467,0,0,1-.75-0.4c0.42,0,.76.1,1.13,0.1h0.29c0.11,0,.13,0,0.17-0.1a0.255,0.255,0,0,1,.28-0.2h0.01c0.33,0.1.9,0.4,1.6,0.7a5.491,5.491,0,0,1,.97-0.8,14.276,14.276,0,0,0,1.86.3h0.9a3.994,3.994,0,0,1,1.06.1h0.38a0.562,0.562,0,0,0,.46-0.1c0.28-.6,1.05-0.6,1.86-0.6h0.44a3.338,3.338,0,0,0,1.02-.1c0.28,0,.6-0.1.94-0.1a7.07,7.07,0,0,1,1.38.2h0.24c0.25,0,.45-0.1.64-0.1a1.339,1.339,0,0,1,.63-0.2,2.078,2.078,0,0,1,.64.2,3.484,3.484,0,0,1,1.84-.4,3.3,3.3,0,0,1,.98.1h0.98a4.327,4.327,0,0,0,1.16-.1,23.523,23.523,0,0,1,4.69-.3h0.18c0.67-.7,2.23-0.4,3.44-0.6,0.22,0,.35-0.1.59-0.1a0.89,0.89,0,0,1,.46.1,0.836,0.836,0,0,0,.47.1h0.14a1.9,1.9,0,0,1,1.57-.4h0.85a3,3,0,0,0,1.46-.3,0.567,0.567,0,0,1,.43-0.1h0.86c1.18,0,2.38.1,3.55,0.1h0.69a6.875,6.875,0,0,0,1.46-.3,8.078,8.078,0,0,1,1.57-.1h2.37a5.375,5.375,0,0,0,1.92-.3,0.578,0.578,0,0,1,.42-0.1h0.9c3.03,0.1,6.06.1,9.1,0.2h0.38c0.51,0,.94-0.1.85-0.6-0.05-.4.27-0.4,0.64-0.4h7.02c1.06,0,2.1,0,3.11-.1h0.26a1.944,1.944,0,0,1,.74.1h0.74a3.39,3.39,0,0,0,1.11-.2,0.37,0.37,0,0,1,.33-0.1c0.26,0,.6.1,0.95,0.1a8.435,8.435,0,0,1-1.2.7,3.46,3.46,0,0,1-1.5.3h-0.52a5.37,5.37,0,0,0-1.2-.2c-0.37,0-.63.1-0.58,0.5,0.01,0.1-.07.1-0.17,0.1h-0.3a11.749,11.749,0,0,1-1.72-.3h-0.28c-0.19,0-.16.1-0.13,0.3,0.03,0.1.07,0.3-.12,0.3h-0.07c-0.07,0-.14-0.1-0.21-0.1-0.1,0-.2.1-0.3,0.1h-0.29a0.5,0.5,0,0,1-.35-0.1,2.96,2.96,0,0,0-.88-0.1,6.966,6.966,0,0,0-1.51.3,2.28,2.28,0,0,1-.8.3h-0.09a7.924,7.924,0,0,0-1.51-.1,26.591,26.591,0,0,0-2.9.2,26.4,26.4,0,0,1-2.89.2H1456a1.883,1.883,0,0,0-1.12.2,1.783,1.783,0,0,1-1.07.3,4.6,4.6,0,0,1-1.08-.2,4.359,4.359,0,0,0-.93-0.2,3.118,3.118,0,0,0-1,.2,1.908,1.908,0,0,1-.76.4,1.772,1.772,0,0,1-.77-0.3h-0.17c-0.16,0-.32.1-0.44,0.1a4.341,4.341,0,0,1-2.37.7h-0.52a2.23,2.23,0,0,0-.87.2,2.208,2.208,0,0,1-.84.2h-0.22c-0.15,0-.28-0.1-0.41-0.1a8.775,8.775,0,0,0-1.73.4c-0.16,0-.3.1-0.47,0.1h-0.16a3.4,3.4,0,0,0-1.21-.3,5.3,5.3,0,0,0-1.33.3,3.541,3.541,0,0,1-1.06.1h-1.3l0.42,0.7c0-.3.22-0.3,0.48-0.3h4.53c0.21,0,.42.1,0.63,0.1a1.849,1.849,0,0,0,1.36-.4,0.233,0.233,0,0,1,.26-0.1h1.36a29.083,29.083,0,0,0,3.03-.2,29.478,29.478,0,0,1,3.02-.1h1.54c0.21,0,.4.1,0.59,0.1a0.773,0.773,0,0,0,.91-0.6,0.621,0.621,0,0,1,.65-0.3,1.346,1.346,0,0,0,1.3-.4,0.807,0.807,0,0,1,.58-0.2h0.2a35.106,35.106,0,0,1,4.4.3,1.994,1.994,0,0,0,.75.1,2.494,2.494,0,0,0,1.36-.4,1.115,1.115,0,0,1,.81-0.2h0.81a11.815,11.815,0,0,0,2.77-.2,4.25,4.25,0,0,1,1.63-.2h3.32a1.08,1.08,0,0,0,.86-0.3h0.31a3.562,3.562,0,0,0,1.2.3,2.12,2.12,0,0,0,.84-0.2,2.094,2.094,0,0,1,.84-0.3h0.76a3.071,3.071,0,0,1,.74.2h0.14c0.21,0,.37-0.2.61-0.2h0.51c0.15,0,.29.1,0.41,0.1a1.743,1.743,0,0,0,.23-0.1,4.771,4.771,0,0,1,1.78-.3,25.31,25.31,0,0,1,2.66.2,7.742,7.742,0,0,0,1.46.2,1.294,1.294,0,0,0,.7-0.2l0.35-.1h1.63a7.57,7.57,0,0,1,1.48.1h0.31a3.071,3.071,0,0,0,1.01-.2,2.968,2.968,0,0,1,1.01-.2h0.12a2.019,2.019,0,0,0,.76.1,5.032,5.032,0,0,0,1.8-.3,1.254,1.254,0,0,1,.64-0.1,9.532,9.532,0,0,1,2.19.4,1.462,1.462,0,0,0,.6.1,0.776,0.776,0,0,0,.49-0.1c0.15,0,.29-0.1.48-0.1h0.5a0.766,0.766,0,0,0,.85-0.3,0.428,0.428,0,0,1,.39-0.2c0.15,0,.32.1,0.46,0.1a2.447,2.447,0,0,0,.97.3,0.337,0.337,0,0,0,.37-0.3h0.15a2.745,2.745,0,0,0,1.29.4h0.49a0.8,0.8,0,0,1,.48-0.1,1.153,1.153,0,0,1,.74.2h0.4c0.35-.6,1.59-0.3,2.15-0.7a2.07,2.07,0,0,1,.83-0.2,4.113,4.113,0,0,1,1.33.3,5.215,5.215,0,0,0,1.7.2,3.641,3.641,0,0,0,1.06-.1,59.252,59.252,0,0,1,6.05-.2h4.35c1.46,0,2.92.1,4.35,0.1h0.15a2.974,2.974,0,0,0,1.41-.3,1.532,1.532,0,0,1,.76-0.2c0.27,0,.58.1,0.89,0.1a10.825,10.825,0,0,0,3.34.5,26.58,26.58,0,0,0,2.89-.2,19.114,19.114,0,0,1,2.43-.2h1.2a5.976,5.976,0,0,0,2.44-.4,2.486,2.486,0,0,1,.32-0.1,0.207,0.207,0,0,1,.2.1,9.107,9.107,0,0,0,1.47.2c0.74,0,1.35-.2,2.08-0.2h0.7a2.75,2.75,0,0,1,1.41.3,0.6,0.6,0,0,0,.4.1h0.17a0.979,0.979,0,0,1,.76-0.3,13.467,13.467,0,0,1,1.63.3,5.6,5.6,0,0,0,1.76.2,3.072,3.072,0,0,0,1.41-.2,2.551,2.551,0,0,1,1.28-.3,7.267,7.267,0,0,1,1.91.3,3.766,3.766,0,0,0,1.43.2h1.79c1.53,0,3.19.1,4.73,0.1,2.05,0.1,4.1.1,6.2,0.1h3.36a9.991,9.991,0,0,0,1.69.1h1.82c1.1,0,2.2,0,3.29.1h3.49a9.727,9.727,0,0,1,2.73.4,3.174,3.174,0,0,0,.94.1c0.46,0,.88-0.1,1.34-0.1,0.31,0,.58-0.1.89-0.1a0.524,0.524,0,0,1,.36.1,9.87,9.87,0,0,0,1.54.2,1.262,1.262,0,0,0,1.08-.4,0.729,0.729,0,0,1,.23-0.1c0.1,0,.22.1,0.33,0.1a5.483,5.483,0,0,0,1.96.4c0.81,0,1.43-.2,2.23-0.2,1.07-.1,2.07-0.2,3.17-0.2a11.7,11.7,0,0,1,2.5.3c1.03,0.2,1.98.2,2.9,0.3,1.39,0,2.7,0,4.08.1a12.4,12.4,0,0,1,1.87.2h0.91l-9.38-3.3a0.55,0.55,0,0,1-.39.1,7.694,7.694,0,0,1-2.38-.9c0.3,0.7.39,1.3-.27,1.4-0.59-.3-1.25-0.6-1.91-0.9a2.253,2.253,0,0,1-1.24.3,3.267,3.267,0,0,1-1.33-.2c-1.09-.4-1.64.3-3.18-0.9-0.27.1-.53,0.3-0.83,0.4a1.382,1.382,0,0,1-.65.2h-0.13c-0.69-.1-1.47-0.3-2.17-0.4a9.615,9.615,0,0,1-2.15-.4,5.327,5.327,0,0,0-1.59-.3,0.77,0.77,0,0,0-.88.9c-0.45-.1-1.08-0.7-1.43-0.7a0.278,0.278,0,0,0-.23.2,1.218,1.218,0,0,1-1.24.6,2.338,2.338,0,0,1-.81-0.1h-1.04c-0.17,0-.35.1-0.54,0.1a0.821,0.821,0,0,1-.46-0.1,19.14,19.14,0,0,1-2.23-.5c-0.25,0-.48-0.1-0.66-0.1a0.277,0.277,0,0,0-.27.1,1.178,1.178,0,0,1-.87.4,4.627,4.627,0,0,1-.95-0.2,8.832,8.832,0,0,1-2.28-.7,2.692,2.692,0,0,0-1.06-.3,0.739,0.739,0,0,0-.65.2c0.13,0.2.23,0.4,0.35,0.6a10.319,10.319,0,0,0-2.53.3,1.176,1.176,0,0,1-.62.1c-0.61,0-1.41-.2-2.08-0.2a7.622,7.622,0,0,0-1.48-.2c-2.09-.2-3.94-0.1-6.1-0.3h-0.91c-1.27,0-2.36.2-3.62,0.3h-0.17c-0.94,0-2.03-.2-3-0.2-0.38,0-.78-0.1-1.16-0.1a2.15,2.15,0,0,0-1.23.3,0.3,0.3,0,0,1-.29.1h-0.23c-2.38,0-4.71,0-7.18-.1a19.278,19.278,0,0,0-2.35-.2h-0.71a7.623,7.623,0,0,1-1.47.4,1.669,1.669,0,0,1-.7.2c-0.09,0-.19-0.1-0.3-0.1a5.765,5.765,0,0,0-1.1-.2h-0.84a2.592,2.592,0,0,0-.92.2,1.376,1.376,0,0,1-.67.1h-0.78c-2.25-.1-4.5-0.1-6.77-0.1h-0.31c-0.76,0-1.46,0-1.75.5l-0.06.1a7.86,7.86,0,0,0-1.32-.3h-0.12c-0.21,0-.38.1-0.62,0.1a1.056,1.056,0,0,1-.68-0.2,2.3,2.3,0,0,0-.65-0.2,0.255,0.255,0,0,0-.23.2l-0.32.2a0.854,0.854,0,0,1-.51.1c-0.32,0-.69-0.1-1.07-0.1a4.427,4.427,0,0,0-1.08-.2c-0.2,0-.39.1-0.55,0.1a1.472,1.472,0,0,1-.69.2c-0.73,0-1.69-.3-2.54-0.4a10.82,10.82,0,0,0-1.73-.3,0.236,0.236,0,0,0-.22-0.1h-0.22c-0.07,0-.15.1-0.22,0.1a1.691,1.691,0,0,1-1.36-.8c-0.67,0-1.7-.6-2.37-0.6a0.459,0.459,0,0,0-.48.2h-0.18a5.531,5.531,0,0,1-1.71-.7,5.116,5.116,0,0,0,1.19.1h1.27a4.829,4.829,0,0,1,1.2-.1,5.072,5.072,0,0,1,1.2.1h0.54a1.622,1.622,0,0,1,1.2-.5,7.013,7.013,0,0,1,1.67.4,0.338,0.338,0,0,0,.28.1h0.11a1.378,1.378,0,0,1,1.29-.4h0.89c0.31,0,.61.1,0.89,0.1,0.14,0,.27-0.1.4-0.1a4.678,4.678,0,0,0,1.7-.2h0.23a10.344,10.344,0,0,1,1.6.3h0.13c0.23,0,.47-0.1.43-0.2-0.21-.7.21-0.8,0.73-0.8h0.35a0.476,0.476,0,0,0,.35.1h0.13a0.476,0.476,0,0,1,.35-0.1c0.24,0,.48.1,0.73,0.1h0.73a3.258,3.258,0,0,0,1.82-.4,0.372,0.372,0,0,1,.34-0.1h0.77c2.07,0.1,4.19.1,6.24,0.1h7.36c0.43,0,.89.1,1.31,0.1h0.24c0.56,0,.99-0.1.77-0.8h-3.13a1.506,1.506,0,0,1,1.26-.9c0.19,0,.41.1,0.67,0.1a0.378,0.378,0,0,0,.3.1h0.1a2.106,2.106,0,0,1,1.16-.3,2.749,2.749,0,0,1,.84.1,12.7,12.7,0,0,1,2.57.4,3.015,3.015,0,0,0,.92.1h0.47c1.28-.4,3.58.2,4.23-0.8h0.16a1.114,1.114,0,0,0,.57-0.1h0.57a3.652,3.652,0,0,1,1.77.5,9.533,9.533,0,0,0,1.73.2c0.57,0.4,1.19.9,1.82,1.3l0.25,0.2c0.94-.1,1.87-0.2,2.86-0.3a6.618,6.618,0,0,0-.58-0.5h0c-0.64,0-1.22.1-1.88,0.1h-0.09a9.555,9.555,0,0,1-1.36-.5c0.32-.5,1.06-0.4,1.6-0.6h1.17a1.172,1.172,0,0,0,.6-0.1h0.08a1.37,1.37,0,0,1,.52.2c0.18,0,.37.1,0.5,0.1,0.15,0,.23-0.1.21-0.3-0.03-.3-0.02-0.6-0.03-1h0.38c0.13,0,.25-0.1.38-0.1,0.17,0,.36.1,0.56,0.1a6.112,6.112,0,0,0,2.43.5h0.85a3.5,3.5,0,0,1,.99.1,3.437,3.437,0,0,0,.98.1,1.046,1.046,0,0,0,.59-0.1h0.37a16.736,16.736,0,0,0,2.94.4c0.26,0,.5-0.1.74-0.1h0.7c0.81,0,1.75.1,2.6,0.1l0.41,0.1a3.158,3.158,0,0,0,1.13.3,3.745,3.745,0,0,0,1.08-.3c0.53,0.6.92,1.1,1.36,1.6a3.4,3.4,0,0,0-1.21-.3,0.5,0.5,0,0,0-.39.1,1.953,1.953,0,0,0,1.29.8,29.473,29.473,0,0,0,2.95.1H1585a3.729,3.729,0,0,0,.97-0.1c-0.87-.6-1.5-1.1-2.15-1.5-0.59-.3-1.17-0.1-1.94-1.1h1.41a0.692,0.692,0,0,0,.67-0.3,0.66,0.66,0,0,1,.68-0.4h0.18c0.32,0,.61-0.2.5-0.5-0.33-.7.54-0.5,0.9-0.6a7.056,7.056,0,0,0-3.33-1h-0.77a5.325,5.325,0,0,1-1.57-.3,1.776,1.776,0,0,0-.66-0.2c-1.52-.1-3.03-0.3-4.55-0.5-0.79,0-1.82-.5-2.56-0.5h-0.26c-1.96-.7-2.98,0-4.99-0.9h-1.79a22.973,22.973,0,0,0-2.45-.6,14.785,14.785,0,0,1-2.07-.2,20.164,20.164,0,0,0-3.29-.4,26.883,26.883,0,0,0-2.71-.4h-0.78a6.4,6.4,0,0,1-2.17-.4,1.371,1.371,0,0,0-.61-0.1h-0.59a8.144,8.144,0,0,1-2.54-.3,2.342,2.342,0,0,0-1.12-.2h-2.54a8.441,8.441,0,0,1-2.9-.5c-0.24,0-.45-0.1-0.65-0.1h-0.31c-0.11,0-.21.1-0.31,0.1a0.121,0.121,0,0,1-.13-0.1,11.419,11.419,0,0,1-2.5-.2,3.547,3.547,0,0,0-1.39-.2h-0.63a28.393,28.393,0,0,1-2.92-.1h-0.32a1.821,1.821,0,0,1-.71-0.1,5.7,5.7,0,0,0-2.31-.5c-0.55,0-1.04.1-1.57,0.1h-1.14a33.1,33.1,0,0,0-5.11-.6h-1.18a12.872,12.872,0,0,1-3.72-.4,1.29,1.29,0,0,0-.58-0.1h-0.52a0.988,0.988,0,0,1-.54.1h-0.19a19.66,19.66,0,0,1-3.94-.5,1.82,1.82,0,0,0-.98-0.2h-0.64c-3.68,0-7.35-.1-11.03-0.1a5.632,5.632,0,0,1-2.62-.5,1.258,1.258,0,0,0-.47-0.2c-0.11,0-.2.1-0.3,0.1h-0.31a1.2,1.2,0,0,1-.73-0.2,2.631,2.631,0,0,0-.75-0.2,2.17,2.17,0,0,0-.85.2,1.27,1.27,0,0,1-.63.2,15.974,15.974,0,0,1-2.64-.5c0.95-.3,1.8-0.5,2.64-0.7h0.32a2.691,2.691,0,0,0,1.23.4,4.129,4.129,0,0,0,1.15-.5,10,10,0,0,1,2.61-.5,10.747,10.747,0,0,1,1.63.2,0.715,0.715,0,0,0,.42.1h0.04a7.322,7.322,0,0,1,2.16-.2h1.59c0.53,0,1.07.1,1.58,0.1h1.1c0.44,0,.79-0.1.42-0.7a2.05,2.05,0,0,1,1.05-.6h0.21a2.163,2.163,0,0,0,.84-0.2,2.206,2.206,0,0,1,.84-0.1,2.374,2.374,0,0,1,1.07.2,19.4,19.4,0,0,1,4.3-.3,0.837,0.837,0,0,0,.47-0.3,2.921,2.921,0,0,1,1.7-.8c0.22,0,.47.1,0.76,0.1a2.542,2.542,0,0,1,1.59-.3h2.41a2.478,2.478,0,0,1,1.77-.5c0.67,0,1.4.1,2.07,0.1h0.11a3.823,3.823,0,0,0,1.97-.4,0.515,0.515,0,0,0,.39-0.6c-0.17-.5-0.06-0.8.44-0.9,0.17,0,.18-0.3.05-0.5-0.22-.4-0.71-0.8-0.44-1a0.44,0.44,0,0,0,.28-0.5,13.137,13.137,0,0,0-1.98-.1,5.476,5.476,0,0,1-1.95-.4,2.081,2.081,0,0,0-.7-0.2c-1.78-.2-3.55-0.3-5.33-0.5l-2.48-.3-3.45-.3a27.49,27.49,0,0,0-2.84-.2l-4.17-.3a4.5,4.5,0,0,1-1.09-.2l-1.91-.3h-0.42a1.521,1.521,0,0,0-.67.1h-1.31a5.478,5.478,0,0,0-1.19-.2,1.171,1.171,0,0,0-.58.1h-0.78a11.93,11.93,0,0,1-2.34-.4,3.6,3.6,0,0,0-1.4-.2h-0.45c-3.49,0-6.96-.1-10.46-0.1-1.1,0-2.32-.2-3.42-0.3h-0.12c-0.41,0-.79.1-1.17,0.1a4.477,4.477,0,0,1-1.16.1h-0.06c-5.15-.1-10.33-0.2-15.48-0.2h-1.04" transform="translate(-1280.38 -12350.5)"/>
</svg>
